SplineFontDB: 3.2
FontName: Makina
FullName: Makina
FamilyName: Makina
Weight: Regular
Copyright: Copyright (c) 2024, W.F.Turnip
UComments: "2024-4-27: Created with FontForge (http://fontforge.org)"
Version: 001.000
ItalicAngle: 0
UnderlinePosition: -70
UnderlineWidth: 35
Ascent: 500
Descent: 200
InvalidEm: 0
LayerCount: 2
Layer: 0 1 "+gMyXYgAA" 1
Layer: 1 1 "+Uk2XYgAA" 0
XUID: [1021 352 -730677569 8637138]
OS2Version: 0
OS2_WeightWidthSlopeOnly: 0
OS2_UseTypoMetrics: 1
CreationTime: 1714202397
ModificationTime: 1761385041
OS2TypoAscent: 0
OS2TypoAOffset: 1
OS2TypoDescent: 0
OS2TypoDOffset: 1
OS2TypoLinegap: 0
OS2WinAscent: 0
OS2WinAOffset: 1
OS2WinDescent: 0
OS2WinDOffset: 1
HheadAscent: 0
HheadAOffset: 1
HheadDescent: 0
HheadDOffset: 1
OS2Vendor: 'PfEd'
Lookup: 260 0 0 "mark" { "mark-1"  } ['mark' ('latn' <'dflt' > ) ]
MarkAttachClasses: 1
DEI: 91125
Encoding: UnicodeBmp
UnicodeInterp: none
NameList: AGL For New Fonts
DisplaySize: -48
AntiAlias: 0
FitToEm: 0
WinInfo: 9660 14 10
BeginPrivate: 0
EndPrivate
AnchorClass2: "vowel" "mark-1"
BeginChars: 65536 96

StartChar: exclam
Encoding: 33 33 1
Width: 400
Flags: W
LayerCount: 2
Fore
SplineSet
150 350 m 1,0,-1
 200 350 l 1,1,-1
 200 300 l 1,2,-1
 150 300 l 1,3,-1
 150 350 l 1,0,-1
150 50 m 1,4,-1
 200 50 l 1,5,-1
 200 0 l 1,6,-1
 150 0 l 1,7,-1
 150 50 l 1,4,-1
EndSplineSet
EndChar

StartChar: quotedbl
Encoding: 34 34 2
Width: 400
Flags: W
LayerCount: 2
Fore
SplineSet
0 200 m 1,0,-1
 50 200 l 1,1,-1
 50 150 l 1,2,-1
 0 150 l 1,3,-1
 0 200 l 1,0,-1
300 200 m 1,4,-1
 350 200 l 1,5,-1
 350 150 l 1,6,-1
 300 150 l 1,7,-1
 300 200 l 1,4,-1
EndSplineSet
EndChar

StartChar: numbersign
Encoding: 35 35 3
Width: 400
Flags: W
LayerCount: 2
Fore
SplineSet
150 500 m 1,0,-1
 200 500 l 1,1,-1
 200 350 l 1,2,-1
 250 350 l 1,3,-1
 250 300 l 1,4,-1
 200 300 l 1,5,-1
 200 150 l 1,6,-1
 250 150 l 1,7,-1
 250 100 l 1,8,-1
 200 100 l 1,9,-1
 200 50 l 1,10,-1
 250 50 l 1,11,-1
 250 0 l 1,12,-1
 200 0 l 1,13,-1
 200 -150 l 1,14,-1
 150 -150 l 1,15,-1
 150 0 l 1,16,-1
 100 0 l 1,17,-1
 100 50 l 1,18,-1
 150 50 l 1,19,-1
 150 150 l 1,20,-1
 150 200 l 1,21,-1
 100 200 l 1,22,-1
 100 250 l 1,23,-1
 150 250 l 1,24,-1
 150 300 l 1,25,-1
 100 300 l 1,26,-1
 100 350 l 1,27,-1
 150 350 l 1,28,-1
 150 500 l 1,0,-1
250 300 m 1,29,-1
 300 300 l 1,30,-1
 300 250 l 1,31,-1
 250 250 l 1,32,-1
 250 300 l 1,29,-1
250 100 m 1,33,-1
 300 100 l 1,34,-1
 300 50 l 1,35,-1
 250 50 l 1,36,-1
 250 100 l 1,33,-1
100 50 m 1,37,-1
 50 50 l 1,38,-1
 50 100 l 1,39,-1
 100 100 l 1,40,-1
 100 50 l 1,37,-1
50 100 m 1,41,-1
 0 100 l 1,42,-1
 0 250 l 1,43,-1
 50 250 l 1,44,-1
 50 100 l 1,41,-1
50 250 m 1,45,-1
 50 300 l 1,46,-1
 100 300 l 1,47,-1
 100 250 l 1,48,-1
 50 250 l 1,45,-1
EndSplineSet
EndChar

StartChar: dollar
Encoding: 36 36 4
Width: 400
Flags: W
LayerCount: 2
Fore
SplineSet
150 500 m 1,0,-1
 200 500 l 1,1,-1
 200 350 l 1,2,-1
 250 350 l 1,3,-1
 250 300 l 1,4,-1
 200 300 l 1,5,-1
 200 150 l 1,6,-1
 250 150 l 1,7,-1
 250 100 l 1,8,-1
 200 100 l 1,9,-1
 200 50 l 1,10,-1
 250 50 l 1,11,-1
 250 0 l 1,12,-1
 200 0 l 1,13,-1
 200 -150 l 1,14,-1
 150 -150 l 1,15,-1
 150 0 l 1,16,-1
 100 0 l 1,17,-1
 100 50 l 1,18,-1
 150 50 l 1,19,-1
 150 150 l 1,20,-1
 150 200 l 1,21,-1
 100 200 l 1,22,-1
 100 250 l 1,23,-1
 150 250 l 1,24,-1
 150 300 l 1,25,-1
 100 300 l 1,26,-1
 100 350 l 1,27,-1
 150 350 l 1,28,-1
 150 500 l 1,0,-1
250 300 m 1,29,-1
 300 300 l 1,30,-1
 300 250 l 1,31,-1
 250 250 l 1,32,-1
 250 300 l 1,29,-1
300 250 m 1,33,-1
 350 250 l 1,34,-1
 350 200 l 1,35,-1
 300 200 l 1,36,-1
 300 250 l 1,33,-1
250 100 m 1,37,-1
 300 100 l 1,38,-1
 300 50 l 1,39,-1
 250 50 l 1,40,-1
 250 100 l 1,37,-1
300 100 m 1,41,-1
 300 150 l 1,42,-1
 350 150 l 1,43,-1
 350 100 l 1,44,-1
 300 100 l 1,41,-1
100 50 m 1,45,-1
 50 50 l 1,46,-1
 50 100 l 1,47,-1
 100 100 l 1,48,-1
 100 50 l 1,45,-1
50 100 m 1,49,-1
 0 100 l 1,50,-1
 0 150 l 1,51,-1
 50 150 l 1,52,-1
 50 100 l 1,49,-1
100 250 m 1,53,-1
 50 250 l 1,54,-1
 50 300 l 1,55,-1
 100 300 l 1,56,-1
 100 250 l 1,53,-1
50 250 m 1,57,-1
 50 200 l 1,58,-1
 0 200 l 1,59,-1
 0 250 l 1,60,-1
 50 250 l 1,57,-1
EndSplineSet
EndChar

StartChar: percent
Encoding: 37 37 5
Width: 400
Flags: W
LayerCount: 2
Fore
SplineSet
250 300 m 1,0,-1
 300 300 l 1,1,-1
 300 250 l 1,2,-1
 250 250 l 1,3,-1
 250 300 l 1,0,-1
250 250 m 1,4,-1
 250 200 l 1,5,-1
 250 150 l 1,6,-1
 200 150 l 1,7,-1
 200 100 l 1,8,-1
 150 100 l 1,9,-1
 100 100 l 1,10,-1
 100 150 l 1,11,-1
 100 200 l 1,12,-1
 150 200 l 1,13,-1
 150 250 l 1,14,-1
 200 250 l 1,15,-1
 250 250 l 1,4,-1
100 100 m 1,16,-1
 100 50 l 1,17,-1
 50 50 l 1,18,-1
 50 100 l 1,19,-1
 100 100 l 1,16,-1
EndSplineSet
EndChar

StartChar: ampersand
Encoding: 38 38 6
Width: 400
Flags: W
LayerCount: 2
Fore
SplineSet
100 350 m 1,0,-1
 250 350 l 1,1,-1
 250 300 l 1,2,-1
 100 300 l 1,3,-1
 100 350 l 1,0,-1
250 300 m 1,4,-1
 300 300 l 1,5,-1
 300 250 l 1,6,-1
 250 250 l 1,7,-1
 250 300 l 1,4,-1
300 250 m 1,8,-1
 350 250 l 1,9,-1
 350 100 l 1,10,-1
 300 100 l 1,11,-1
 300 250 l 1,8,-1
300 100 m 1,12,-1
 300 50 l 1,13,-1
 250 50 l 1,14,-1
 250 100 l 1,15,-1
 300 100 l 1,12,-1
250 50 m 1,16,-1
 250 0 l 1,17,-1
 100 0 l 1,18,-1
 100 50 l 1,19,-1
 250 50 l 1,16,-1
100 50 m 1,20,-1
 50 50 l 1,21,-1
 50 100 l 1,22,-1
 100 100 l 1,23,-1
 100 50 l 1,20,-1
100 100 m 1,24,-1
 100 150 l 1,25,-1
 150 150 l 1,26,-1
 150 200 l 1,27,-1
 100 200 l 1,28,-1
 100 250 l 1,29,-1
 200 250 l 1,30,-1
 200 200 l 1,31,-1
 250 200 l 1,32,-1
 250 150 l 1,33,-1
 200 150 l 1,34,-1
 200 100 l 1,35,-1
 100 100 l 1,24,-1
100 250 m 1,36,-1
 50 250 l 1,37,-1
 50 300 l 1,38,-1
 100 300 l 1,39,-1
 100 250 l 1,36,-1
EndSplineSet
EndChar

StartChar: quotesingle
Encoding: 39 39 7
Width: 400
Flags: W
LayerCount: 2
Fore
SplineSet
150 200 m 1,0,-1
 200 200 l 1,1,-1
 200 150 l 1,2,-1
 150 150 l 1,3,-1
 150 200 l 1,0,-1
EndSplineSet
EndChar

StartChar: parenleft
Encoding: 40 40 8
Width: 400
Flags: W
LayerCount: 2
Fore
SplineSet
250 500 m 1,0,-1
 300 500 l 1,1,-1
 300 450 l 1,2,-1
 250 450 l 1,3,-1
 250 500 l 1,0,-1
250 450 m 1,4,-1
 250 400 l 1,5,-1
 200 400 l 1,6,-1
 200 450 l 1,7,-1
 250 450 l 1,4,-1
200 400 m 1,8,-1
 200 -50 l 1,9,-1
 150 -50 l 1,10,-1
 150 400 l 1,11,-1
 200 400 l 1,8,-1
200 -50 m 1,12,-1
 250 -50 l 1,13,-1
 250 -100 l 1,14,-1
 200 -100 l 1,15,-1
 200 -50 l 1,12,-1
250 -100 m 1,16,-1
 300 -100 l 1,17,-1
 300 -150 l 1,18,-1
 250 -150 l 1,19,-1
 250 -100 l 1,16,-1
EndSplineSet
EndChar

StartChar: parenright
Encoding: 41 41 9
Width: 400
Flags: W
LayerCount: 2
Fore
SplineSet
50 500 m 1,0,-1
 100 500 l 1,1,-1
 100 450 l 1,2,-1
 50 450 l 1,3,-1
 50 500 l 1,0,-1
100 450 m 1,4,-1
 150 450 l 1,5,-1
 150 400 l 1,6,-1
 100 400 l 1,7,-1
 100 450 l 1,4,-1
150 400 m 1,8,-1
 200 400 l 1,9,-1
 200 -50 l 1,10,-1
 150 -50 l 1,11,-1
 150 400 l 1,8,-1
150 -50 m 1,12,-1
 150 -100 l 1,13,-1
 100 -100 l 1,14,-1
 100 -50 l 1,15,-1
 150 -50 l 1,12,-1
100 -100 m 1,16,-1
 100 -150 l 1,17,-1
 50 -150 l 1,18,-1
 50 -100 l 1,19,-1
 100 -100 l 1,16,-1
EndSplineSet
EndChar

StartChar: asterisk
Encoding: 42 42 10
Width: 400
Flags: W
LayerCount: 2
Fore
SplineSet
150 350 m 1,0,-1
 200 350 l 1,1,-1
 200 250 l 1,2,-1
 250 250 l 1,3,-1
 250 200 l 1,4,-1
 200 200 l 1,5,-1
 200 150 l 1,6,-1
 250 150 l 1,7,-1
 250 100 l 1,8,-1
 200 100 l 1,9,-1
 200 0 l 1,10,-1
 150 0 l 1,11,-1
 150 100 l 1,12,-1
 100 100 l 1,13,-1
 100 150 l 1,14,-1
 150 150 l 1,15,-1
 150 200 l 1,16,-1
 100 200 l 1,17,-1
 100 250 l 1,18,-1
 150 250 l 1,19,-1
 150 350 l 1,0,-1
250 250 m 1,20,-1
 250 300 l 1,21,-1
 300 300 l 1,22,-1
 300 250 l 1,23,-1
 250 250 l 1,20,-1
250 100 m 1,24,-1
 300 100 l 1,25,-1
 300 50 l 1,26,-1
 250 50 l 1,27,-1
 250 100 l 1,24,-1
100 100 m 1,28,-1
 100 50 l 1,29,-1
 50 50 l 1,30,-1
 50 100 l 1,31,-1
 100 100 l 1,28,-1
100 250 m 1,32,-1
 50 250 l 1,33,-1
 50 300 l 1,34,-1
 100 300 l 1,35,-1
 100 250 l 1,32,-1
EndSplineSet
EndChar

StartChar: plus
Encoding: 43 43 11
Width: 400
Flags: W
LayerCount: 2
Fore
SplineSet
150 350 m 1,0,-1
 200 350 l 1,1,-1
 200 200 l 1,2,-1
 350 200 l 1,3,-1
 350 150 l 1,4,-1
 200 150 l 1,5,-1
 200 0 l 1,6,-1
 150 0 l 1,7,-1
 150 150 l 1,8,-1
 0 150 l 1,9,-1
 0 200 l 1,10,-1
 150 200 l 1,11,-1
 150 350 l 1,0,-1
EndSplineSet
EndChar

StartChar: comma
Encoding: 44 44 12
Width: 400
Flags: W
LayerCount: 2
Fore
SplineSet
0 200 m 1,0,-1
 50 200 l 1,1,-1
 50 150 l 1,2,-1
 0 150 l 1,3,-1
 0 200 l 1,0,-1
150 200 m 1,4,-1
 200 200 l 1,5,-1
 200 150 l 1,6,-1
 150 150 l 1,7,-1
 150 200 l 1,4,-1
300 200 m 1,8,-1
 350 200 l 1,9,-1
 350 150 l 1,10,-1
 300 150 l 1,11,-1
 300 200 l 1,8,-1
EndSplineSet
EndChar

StartChar: hyphen
Encoding: 45 45 13
Width: 400
Flags: W
LayerCount: 2
Fore
SplineSet
0 200 m 1,0,-1
 350 200 l 1,1,-1
 350 150 l 1,2,-1
 0 150 l 1,3,-1
 0 200 l 1,0,-1
EndSplineSet
EndChar

StartChar: period
Encoding: 46 46 14
Width: 400
Flags: W
LayerCount: 2
Fore
SplineSet
150 350 m 1,0,-1
 200 350 l 1,1,-1
 200 300 l 1,2,-1
 150 300 l 1,3,-1
 150 350 l 1,0,-1
0 200 m 1,4,-1
 50 200 l 1,5,-1
 50 150 l 1,6,-1
 0 150 l 1,7,-1
 0 200 l 1,4,-1
150 200 m 1,8,-1
 200 200 l 1,9,-1
 200 150 l 1,10,-1
 150 150 l 1,11,-1
 150 200 l 1,8,-1
300 200 m 1,12,-1
 350 200 l 1,13,-1
 350 150 l 1,14,-1
 300 150 l 1,15,-1
 300 200 l 1,12,-1
150 50 m 1,16,-1
 200 50 l 1,17,-1
 200 0 l 1,18,-1
 150 0 l 1,19,-1
 150 50 l 1,16,-1
EndSplineSet
EndChar

StartChar: slash
Encoding: 47 47 15
Width: 400
Flags: W
LayerCount: 2
Fore
SplineSet
250 300 m 1,0,-1
 300 300 l 1,1,-1
 300 250 l 1,2,-1
 250 250 l 1,3,-1
 250 300 l 1,0,-1
250 250 m 1,4,-1
 250 200 l 1,5,-1
 200 200 l 1,6,-1
 200 250 l 1,7,-1
 250 250 l 1,4,-1
200 200 m 1,8,-1
 200 150 l 1,9,-1
 150 150 l 1,10,-1
 150 200 l 1,11,-1
 200 200 l 1,8,-1
150 150 m 1,12,-1
 150 100 l 1,13,-1
 100 100 l 1,14,-1
 100 150 l 1,15,-1
 150 150 l 1,12,-1
100 100 m 1,16,-1
 100 50 l 1,17,-1
 50 50 l 1,18,-1
 50 100 l 1,19,-1
 100 100 l 1,16,-1
EndSplineSet
EndChar

StartChar: zero
Encoding: 48 48 16
Width: 400
Flags: W
LayerCount: 2
Fore
SplineSet
150 250 m 1,0,-1
 200 250 l 1,1,-1
 200 200 l 1,2,-1
 150 200 l 1,3,-1
 150 250 l 1,0,-1
200 200 m 1,4,-1
 250 200 l 1,5,-1
 250 150 l 1,6,-1
 200 150 l 1,7,-1
 200 200 l 1,4,-1
200 150 m 1,8,-1
 200 100 l 1,9,-1
 150 100 l 1,10,-1
 150 150 l 1,11,-1
 200 150 l 1,8,-1
150 150 m 1,12,-1
 100 150 l 1,13,-1
 100 200 l 1,14,-1
 150 200 l 1,15,-1
 150 150 l 1,12,-1
EndSplineSet
EndChar

StartChar: one
Encoding: 49 49 17
Width: 400
Flags: W
LayerCount: 2
Fore
SplineSet
150 350 m 1,0,-1
 250 350 l 1,1,-1
 250 300 l 1,2,-1
 150 300 l 1,3,-1
 150 350 l 1,0,-1
250 300 m 1,4,-1
 300 300 l 1,5,-1
 300 250 l 1,6,-1
 250 250 l 1,7,-1
 250 300 l 1,4,-1
300 250 m 1,8,-1
 350 250 l 1,9,-1
 350 100 l 1,10,-1
 300 100 l 1,11,-1
 300 250 l 1,8,-1
300 100 m 1,12,-1
 300 50 l 1,13,-1
 250 50 l 1,14,-1
 250 100 l 1,15,-1
 300 100 l 1,12,-1
250 50 m 1,16,-1
 250 0 l 1,17,-1
 100 0 l 1,18,-1
 100 50 l 1,19,-1
 250 50 l 1,16,-1
100 50 m 1,20,-1
 50 50 l 1,21,-1
 50 100 l 1,22,-1
 100 100 l 1,23,-1
 100 50 l 1,20,-1
50 100 m 1,24,-1
 0 100 l 1,25,-1
 0 200 l 1,26,-1
 50 200 l 1,27,-1
 50 100 l 1,24,-1
150 250 m 1,28,-1
 200 250 l 1,29,-1
 200 200 l 1,30,-1
 150 200 l 1,31,-1
 150 250 l 1,28,-1
200 200 m 1,32,-1
 250 200 l 1,33,-1
 250 150 l 1,34,-1
 200 150 l 1,35,-1
 200 200 l 1,32,-1
200 150 m 1,36,-1
 200 100 l 1,37,-1
 150 100 l 1,38,-1
 150 150 l 1,39,-1
 200 150 l 1,36,-1
150 150 m 1,40,-1
 100 150 l 1,41,-1
 100 200 l 1,42,-1
 150 200 l 1,43,-1
 150 150 l 1,40,-1
EndSplineSet
EndChar

StartChar: two
Encoding: 50 50 18
Width: 400
Flags: W
LayerCount: 2
Fore
SplineSet
50 300 m 1,0,-1
 100 300 l 1,1,-1
 100 250 l 1,2,-1
 50 250 l 1,3,-1
 50 300 l 1,0,-1
50 250 m 1,4,-1
 50 100 l 1,5,-1
 0 100 l 1,6,-1
 0 250 l 1,7,-1
 50 250 l 1,4,-1
50 100 m 1,8,-1
 100 100 l 1,9,-1
 100 50 l 1,10,-1
 50 50 l 1,11,-1
 50 100 l 1,8,-1
100 50 m 1,12,-1
 250 50 l 1,13,-1
 250 0 l 1,14,-1
 100 0 l 1,15,-1
 100 50 l 1,12,-1
250 50 m 1,16,-1
 250 100 l 1,17,-1
 300 100 l 1,18,-1
 300 50 l 1,19,-1
 250 50 l 1,16,-1
300 100 m 1,20,-1
 300 250 l 1,21,-1
 350 250 l 1,22,-1
 350 100 l 1,23,-1
 300 100 l 1,20,-1
300 250 m 1,24,-1
 250 250 l 1,25,-1
 250 300 l 1,26,-1
 300 300 l 1,27,-1
 300 250 l 1,24,-1
150 250 m 1,28,-1
 200 250 l 1,29,-1
 200 200 l 1,30,-1
 150 200 l 1,31,-1
 150 250 l 1,28,-1
200 200 m 1,32,-1
 250 200 l 1,33,-1
 250 150 l 1,34,-1
 200 150 l 1,35,-1
 200 200 l 1,32,-1
200 150 m 1,36,-1
 200 100 l 1,37,-1
 150 100 l 1,38,-1
 150 150 l 1,39,-1
 200 150 l 1,36,-1
150 150 m 1,40,-1
 100 150 l 1,41,-1
 100 200 l 1,42,-1
 150 200 l 1,43,-1
 150 150 l 1,40,-1
EndSplineSet
EndChar

StartChar: three
Encoding: 51 51 19
Width: 400
Flags: W
LayerCount: 2
Fore
SplineSet
100 350 m 1,0,-1
 200 350 l 1,1,-1
 200 300 l 1,2,-1
 100 300 l 1,3,-1
 100 350 l 1,0,-1
100 300 m 1,4,-1
 100 250 l 1,5,-1
 50 250 l 1,6,-1
 50 300 l 1,7,-1
 100 300 l 1,4,-1
50 250 m 1,8,-1
 50 100 l 1,9,-1
 0 100 l 1,10,-1
 0 250 l 1,11,-1
 50 250 l 1,8,-1
50 100 m 1,12,-1
 100 100 l 1,13,-1
 100 50 l 1,14,-1
 50 50 l 1,15,-1
 50 100 l 1,12,-1
100 50 m 1,16,-1
 250 50 l 1,17,-1
 250 0 l 1,18,-1
 100 0 l 1,19,-1
 100 50 l 1,16,-1
250 50 m 1,20,-1
 250 100 l 1,21,-1
 300 100 l 1,22,-1
 300 50 l 1,23,-1
 250 50 l 1,20,-1
300 100 m 1,24,-1
 300 200 l 1,25,-1
 350 200 l 1,26,-1
 350 100 l 1,27,-1
 300 100 l 1,24,-1
150 250 m 1,28,-1
 200 250 l 1,29,-1
 200 200 l 1,30,-1
 150 200 l 1,31,-1
 150 250 l 1,28,-1
200 200 m 1,32,-1
 250 200 l 1,33,-1
 250 150 l 1,34,-1
 200 150 l 1,35,-1
 200 200 l 1,32,-1
200 150 m 1,36,-1
 200 100 l 1,37,-1
 150 100 l 1,38,-1
 150 150 l 1,39,-1
 200 150 l 1,36,-1
150 150 m 1,40,-1
 100 150 l 1,41,-1
 100 200 l 1,42,-1
 150 200 l 1,43,-1
 150 150 l 1,40,-1
EndSplineSet
EndChar

StartChar: four
Encoding: 52 52 20
Width: 400
Flags: W
LayerCount: 2
Fore
SplineSet
100 350 m 1,0,-1
 250 350 l 1,1,-1
 250 300 l 1,2,-1
 100 300 l 1,3,-1
 100 350 l 1,0,-1
250 300 m 1,4,-1
 300 300 l 1,5,-1
 300 250 l 1,6,-1
 250 250 l 1,7,-1
 250 300 l 1,4,-1
300 250 m 1,8,-1
 350 250 l 1,9,-1
 350 100 l 1,10,-1
 300 100 l 1,11,-1
 300 250 l 1,8,-1
300 100 m 1,12,-1
 300 50 l 1,13,-1
 250 50 l 1,14,-1
 250 100 l 1,15,-1
 300 100 l 1,12,-1
250 50 m 1,16,-1
 250 0 l 1,17,-1
 100 0 l 1,18,-1
 100 50 l 1,19,-1
 250 50 l 1,16,-1
100 50 m 1,20,-1
 50 50 l 1,21,-1
 50 100 l 1,22,-1
 100 100 l 1,23,-1
 100 50 l 1,20,-1
100 300 m 1,24,-1
 100 250 l 1,25,-1
 50 250 l 1,26,-1
 50 300 l 1,27,-1
 100 300 l 1,24,-1
150 250 m 1,28,-1
 200 250 l 1,29,-1
 200 200 l 1,30,-1
 150 200 l 1,31,-1
 150 250 l 1,28,-1
200 200 m 1,32,-1
 250 200 l 1,33,-1
 250 150 l 1,34,-1
 200 150 l 1,35,-1
 200 200 l 1,32,-1
200 150 m 1,36,-1
 200 100 l 1,37,-1
 150 100 l 1,38,-1
 150 150 l 1,39,-1
 200 150 l 1,36,-1
150 150 m 1,40,-1
 100 150 l 1,41,-1
 100 200 l 1,42,-1
 150 200 l 1,43,-1
 150 150 l 1,40,-1
EndSplineSet
EndChar

StartChar: five
Encoding: 53 53 21
Width: 400
Flags: W
LayerCount: 2
Fore
SplineSet
100 350 m 1,0,-1
 250 350 l 1,1,-1
 250 300 l 1,2,-1
 100 300 l 1,3,-1
 100 350 l 1,0,-1
250 300 m 1,4,-1
 300 300 l 1,5,-1
 300 250 l 1,6,-1
 250 250 l 1,7,-1
 250 300 l 1,4,-1
300 250 m 1,8,-1
 350 250 l 1,9,-1
 350 100 l 1,10,-1
 300 100 l 1,11,-1
 300 250 l 1,8,-1
300 100 m 1,12,-1
 300 50 l 1,13,-1
 250 50 l 1,14,-1
 250 100 l 1,15,-1
 300 100 l 1,12,-1
250 50 m 1,16,-1
 250 0 l 1,17,-1
 100 0 l 1,18,-1
 100 50 l 1,19,-1
 250 50 l 1,16,-1
100 50 m 1,20,-1
 50 50 l 1,21,-1
 50 100 l 1,22,-1
 100 100 l 1,23,-1
 100 50 l 1,20,-1
50 100 m 1,24,-1
 0 100 l 1,25,-1
 0 250 l 1,26,-1
 50 250 l 1,27,-1
 50 100 l 1,24,-1
50 250 m 1,28,-1
 50 300 l 1,29,-1
 100 300 l 1,30,-1
 100 250 l 1,31,-1
 50 250 l 1,28,-1
150 250 m 1,32,-1
 200 250 l 1,33,-1
 200 200 l 1,34,-1
 150 200 l 1,35,-1
 150 250 l 1,32,-1
200 200 m 1,36,-1
 250 200 l 1,37,-1
 250 150 l 1,38,-1
 200 150 l 1,39,-1
 200 200 l 1,36,-1
200 150 m 1,40,-1
 200 100 l 1,41,-1
 150 100 l 1,42,-1
 150 150 l 1,43,-1
 200 150 l 1,40,-1
150 150 m 1,44,-1
 100 150 l 1,45,-1
 100 200 l 1,46,-1
 150 200 l 1,47,-1
 150 150 l 1,44,-1
EndSplineSet
EndChar

StartChar: six
Encoding: 54 54 22
Width: 400
Flags: W
LayerCount: 2
Fore
SplineSet
100 350 m 1,0,-1
 250 350 l 1,1,-1
 250 300 l 1,2,-1
 100 300 l 1,3,-1
 100 350 l 1,0,-1
250 300 m 1,4,-1
 300 300 l 1,5,-1
 300 250 l 1,6,-1
 250 250 l 1,7,-1
 250 300 l 1,4,-1
100 300 m 1,8,-1
 100 250 l 1,9,-1
 50 250 l 1,10,-1
 50 300 l 1,11,-1
 100 300 l 1,8,-1
50 250 m 1,12,-1
 50 100 l 1,13,-1
 0 100 l 1,14,-1
 0 250 l 1,15,-1
 50 250 l 1,12,-1
50 100 m 1,16,-1
 100 100 l 1,17,-1
 100 50 l 1,18,-1
 50 50 l 1,19,-1
 50 100 l 1,16,-1
100 50 m 1,20,-1
 250 50 l 1,21,-1
 250 0 l 1,22,-1
 100 0 l 1,23,-1
 100 50 l 1,20,-1
250 50 m 1,24,-1
 250 100 l 1,25,-1
 300 100 l 1,26,-1
 300 50 l 1,27,-1
 250 50 l 1,24,-1
150 250 m 1,28,-1
 200 250 l 1,29,-1
 200 200 l 1,30,-1
 150 200 l 1,31,-1
 150 250 l 1,28,-1
200 200 m 1,32,-1
 250 200 l 1,33,-1
 250 150 l 1,34,-1
 200 150 l 1,35,-1
 200 200 l 1,32,-1
200 150 m 1,36,-1
 200 100 l 1,37,-1
 150 100 l 1,38,-1
 150 150 l 1,39,-1
 200 150 l 1,36,-1
150 150 m 1,40,-1
 100 150 l 1,41,-1
 100 200 l 1,42,-1
 150 200 l 1,43,-1
 150 150 l 1,40,-1
EndSplineSet
EndChar

StartChar: seven
Encoding: 55 55 23
Width: 400
Flags: W
LayerCount: 2
Fore
SplineSet
100 350 m 1,0,-1
 250 350 l 1,1,-1
 250 300 l 1,2,-1
 100 300 l 1,3,-1
 100 350 l 1,0,-1
250 300 m 1,4,-1
 300 300 l 1,5,-1
 300 250 l 1,6,-1
 250 250 l 1,7,-1
 250 300 l 1,4,-1
300 250 m 1,8,-1
 350 250 l 1,9,-1
 350 100 l 1,10,-1
 300 100 l 1,11,-1
 300 250 l 1,8,-1
300 100 m 1,12,-1
 300 50 l 1,13,-1
 250 50 l 1,14,-1
 250 100 l 1,15,-1
 300 100 l 1,12,-1
250 50 m 1,16,-1
 250 0 l 1,17,-1
 150 0 l 1,18,-1
 150 50 l 1,19,-1
 250 50 l 1,16,-1
100 300 m 1,20,-1
 100 250 l 1,21,-1
 50 250 l 1,22,-1
 50 300 l 1,23,-1
 100 300 l 1,20,-1
50 250 m 1,24,-1
 50 150 l 1,25,-1
 0 150 l 1,26,-1
 0 250 l 1,27,-1
 50 250 l 1,24,-1
150 250 m 1,28,-1
 200 250 l 1,29,-1
 200 200 l 1,30,-1
 150 200 l 1,31,-1
 150 250 l 1,28,-1
200 200 m 1,32,-1
 250 200 l 1,33,-1
 250 150 l 1,34,-1
 200 150 l 1,35,-1
 200 200 l 1,32,-1
200 150 m 1,36,-1
 200 100 l 1,37,-1
 150 100 l 1,38,-1
 150 150 l 1,39,-1
 200 150 l 1,36,-1
150 150 m 1,40,-1
 100 150 l 1,41,-1
 100 200 l 1,42,-1
 150 200 l 1,43,-1
 150 150 l 1,40,-1
EndSplineSet
EndChar

StartChar: eight
Encoding: 56 56 24
Width: 400
Flags: W
LayerCount: 2
Fore
SplineSet
100 350 m 1,0,-1
 250 350 l 1,1,-1
 250 300 l 1,2,-1
 100 300 l 1,3,-1
 100 350 l 1,0,-1
250 300 m 1,4,-1
 300 300 l 1,5,-1
 300 250 l 1,6,-1
 250 250 l 1,7,-1
 250 300 l 1,4,-1
300 250 m 1,8,-1
 350 250 l 1,9,-1
 350 100 l 1,10,-1
 300 100 l 1,11,-1
 300 250 l 1,8,-1
300 100 m 1,12,-1
 300 50 l 1,13,-1
 250 50 l 1,14,-1
 250 100 l 1,15,-1
 300 100 l 1,12,-1
100 300 m 1,16,-1
 100 250 l 1,17,-1
 50 250 l 1,18,-1
 50 300 l 1,19,-1
 100 300 l 1,16,-1
50 250 m 1,20,-1
 50 100 l 1,21,-1
 0 100 l 1,22,-1
 0 250 l 1,23,-1
 50 250 l 1,20,-1
50 100 m 1,24,-1
 100 100 l 1,25,-1
 100 50 l 1,26,-1
 50 50 l 1,27,-1
 50 100 l 1,24,-1
150 250 m 1,28,-1
 200 250 l 1,29,-1
 200 200 l 1,30,-1
 150 200 l 1,31,-1
 150 250 l 1,28,-1
200 200 m 1,32,-1
 250 200 l 1,33,-1
 250 150 l 1,34,-1
 200 150 l 1,35,-1
 200 200 l 1,32,-1
200 150 m 1,36,-1
 200 100 l 1,37,-1
 150 100 l 1,38,-1
 150 150 l 1,39,-1
 200 150 l 1,36,-1
150 150 m 1,40,-1
 100 150 l 1,41,-1
 100 200 l 1,42,-1
 150 200 l 1,43,-1
 150 150 l 1,40,-1
EndSplineSet
EndChar

StartChar: nine
Encoding: 57 57 25
Width: 400
Flags: W
LayerCount: 2
Fore
SplineSet
100 350 m 1,0,-1
 250 350 l 1,1,-1
 250 300 l 1,2,-1
 100 300 l 1,3,-1
 100 350 l 1,0,-1
250 300 m 1,4,-1
 300 300 l 1,5,-1
 300 250 l 1,6,-1
 250 250 l 1,7,-1
 250 300 l 1,4,-1
300 250 m 1,8,-1
 350 250 l 1,9,-1
 350 150 l 1,10,-1
 300 150 l 1,11,-1
 300 250 l 1,8,-1
100 300 m 1,12,-1
 100 250 l 1,13,-1
 50 250 l 1,14,-1
 50 300 l 1,15,-1
 100 300 l 1,12,-1
50 250 m 1,16,-1
 50 100 l 1,17,-1
 0 100 l 1,18,-1
 0 250 l 1,19,-1
 50 250 l 1,16,-1
50 100 m 1,20,-1
 100 100 l 1,21,-1
 100 50 l 1,22,-1
 50 50 l 1,23,-1
 50 100 l 1,20,-1
100 50 m 1,24,-1
 200 50 l 1,25,-1
 200 0 l 1,26,-1
 100 0 l 1,27,-1
 100 50 l 1,24,-1
150 250 m 1,28,-1
 200 250 l 1,29,-1
 200 200 l 1,30,-1
 150 200 l 1,31,-1
 150 250 l 1,28,-1
200 200 m 1,32,-1
 250 200 l 1,33,-1
 250 150 l 1,34,-1
 200 150 l 1,35,-1
 200 200 l 1,32,-1
200 150 m 1,36,-1
 200 100 l 1,37,-1
 150 100 l 1,38,-1
 150 150 l 1,39,-1
 200 150 l 1,36,-1
150 150 m 1,40,-1
 100 150 l 1,41,-1
 100 200 l 1,42,-1
 150 200 l 1,43,-1
 150 150 l 1,40,-1
EndSplineSet
EndChar

StartChar: colon
Encoding: 58 58 26
Width: 400
Flags: W
LayerCount: 2
Fore
SplineSet
150 350 m 1,0,-1
 200 350 l 1,1,-1
 200 300 l 1,2,-1
 150 300 l 1,3,-1
 150 350 l 1,0,-1
50 300 m 1,4,-1
 100 300 l 1,5,-1
 100 250 l 1,6,-1
 50 250 l 1,7,-1
 50 300 l 1,4,-1
100 250 m 1,8,-1
 150 250 l 1,9,-1
 150 200 l 1,10,-1
 100 200 l 1,11,-1
 100 250 l 1,8,-1
150 200 m 1,12,-1
 200 200 l 1,13,-1
 200 150 l 1,14,-1
 150 150 l 1,15,-1
 150 200 l 1,12,-1
200 150 m 1,16,-1
 250 150 l 1,17,-1
 250 100 l 1,18,-1
 200 100 l 1,19,-1
 200 150 l 1,16,-1
250 100 m 1,20,-1
 300 100 l 1,21,-1
 300 50 l 1,22,-1
 250 50 l 1,23,-1
 250 100 l 1,20,-1
0 200 m 1,24,-1
 50 200 l 1,25,-1
 50 150 l 1,26,-1
 0 150 l 1,27,-1
 0 200 l 1,24,-1
300 200 m 1,28,-1
 350 200 l 1,29,-1
 350 150 l 1,30,-1
 300 150 l 1,31,-1
 300 200 l 1,28,-1
150 50 m 1,32,-1
 200 50 l 1,33,-1
 200 0 l 1,34,-1
 150 0 l 1,35,-1
 150 50 l 1,32,-1
EndSplineSet
EndChar

StartChar: semicolon
Encoding: 59 59 27
Width: 400
Flags: W
LayerCount: 2
Fore
SplineSet
50 300 m 1,0,-1
 100 300 l 1,1,-1
 100 250 l 1,2,-1
 50 250 l 1,3,-1
 50 300 l 1,0,-1
100 250 m 1,4,-1
 150 250 l 1,5,-1
 150 200 l 1,6,-1
 100 200 l 1,7,-1
 100 250 l 1,4,-1
150 200 m 1,8,-1
 200 200 l 1,9,-1
 200 150 l 1,10,-1
 150 150 l 1,11,-1
 150 200 l 1,8,-1
200 150 m 1,12,-1
 250 150 l 1,13,-1
 250 100 l 1,14,-1
 200 100 l 1,15,-1
 200 150 l 1,12,-1
250 100 m 1,16,-1
 300 100 l 1,17,-1
 300 50 l 1,18,-1
 250 50 l 1,19,-1
 250 100 l 1,16,-1
0 200 m 1,20,-1
 50 200 l 1,21,-1
 50 150 l 1,22,-1
 0 150 l 1,23,-1
 0 200 l 1,20,-1
300 200 m 1,24,-1
 350 200 l 1,25,-1
 350 150 l 1,26,-1
 300 150 l 1,27,-1
 300 200 l 1,24,-1
EndSplineSet
EndChar

StartChar: less
Encoding: 60 60 28
Width: 400
Flags: W
LayerCount: 2
Fore
SplineSet
150 250 m 1,0,-1
 250 250 l 1,1,-1
 250 200 l 1,2,-1
 150 200 l 1,3,-1
 150 250 l 1,0,-1
150 200 m 1,4,-1
 150 150 l 1,5,-1
 100 150 l 1,6,-1
 100 200 l 1,7,-1
 150 200 l 1,4,-1
150 150 m 1,8,-1
 250 150 l 1,9,-1
 250 100 l 1,10,-1
 150 100 l 1,11,-1
 150 150 l 1,8,-1
EndSplineSet
EndChar

StartChar: equal
Encoding: 61 61 29
Width: 400
Flags: W
LayerCount: 2
Fore
SplineSet
100 250 m 1,0,-1
 250 250 l 1,1,-1
 250 200 l 1,2,-1
 100 200 l 1,3,-1
 100 250 l 1,0,-1
100 150 m 1,4,-1
 250 150 l 1,5,-1
 250 100 l 1,6,-1
 100 100 l 1,7,-1
 100 150 l 1,4,-1
EndSplineSet
EndChar

StartChar: greater
Encoding: 62 62 30
Width: 400
Flags: W
LayerCount: 2
Fore
SplineSet
100 250 m 1,0,-1
 200 250 l 1,1,-1
 200 200 l 1,2,-1
 100 200 l 1,3,-1
 100 250 l 1,0,-1
200 200 m 1,4,-1
 250 200 l 1,5,-1
 250 150 l 1,6,-1
 200 150 l 1,7,-1
 200 200 l 1,4,-1
200 150 m 1,8,-1
 200 100 l 1,9,-1
 100 100 l 1,10,-1
 100 150 l 1,11,-1
 200 150 l 1,8,-1
EndSplineSet
EndChar

StartChar: question
Encoding: 63 63 31
Width: 400
Flags: W
LayerCount: 2
Fore
SplineSet
150 350 m 1,0,-1
 200 350 l 1,1,-1
 200 300 l 1,2,-1
 150 300 l 1,3,-1
 150 350 l 1,0,-1
150 200 m 1,4,-1
 200 200 l 1,5,-1
 200 150 l 1,6,-1
 150 150 l 1,7,-1
 150 200 l 1,4,-1
150 50 m 1,8,-1
 200 50 l 1,9,-1
 200 0 l 1,10,-1
 150 0 l 1,11,-1
 150 50 l 1,8,-1
EndSplineSet
EndChar

StartChar: at
Encoding: 64 64 32
Width: 400
Flags: W
LayerCount: 2
Fore
SplineSet
100 350 m 1,0,-1
 250 350 l 1,1,-1
 250 300 l 1,2,-1
 100 300 l 1,3,-1
 100 350 l 1,0,-1
250 300 m 1,4,-1
 300 300 l 1,5,-1
 300 250 l 1,6,-1
 250 250 l 1,7,-1
 250 300 l 1,4,-1
300 250 m 1,8,-1
 350 250 l 1,9,-1
 350 100 l 1,10,-1
 300 100 l 1,11,-1
 300 250 l 1,8,-1
300 100 m 1,12,-1
 300 50 l 1,13,-1
 250 50 l 1,14,-1
 250 100 l 1,15,-1
 300 100 l 1,12,-1
250 50 m 1,16,-1
 250 0 l 1,17,-1
 100 0 l 1,18,-1
 100 50 l 1,19,-1
 250 50 l 1,16,-1
100 50 m 1,20,-1
 50 50 l 1,21,-1
 50 100 l 1,22,-1
 100 100 l 1,23,-1
 100 50 l 1,20,-1
50 100 m 1,24,-1
 0 100 l 1,25,-1
 0 250 l 1,26,-1
 50 250 l 1,27,-1
 50 100 l 1,24,-1
50 250 m 1,28,-1
 50 300 l 1,29,-1
 100 300 l 1,30,-1
 100 250 l 1,31,-1
 50 250 l 1,28,-1
150 250 m 1,32,-1
 200 250 l 1,33,-1
 200 200 l 1,34,-1
 150 200 l 1,35,-1
 150 250 l 1,32,-1
200 200 m 1,36,-1
 250 200 l 1,37,-1
 250 150 l 1,38,-1
 200 150 l 1,39,-1
 200 200 l 1,36,-1
200 150 m 1,40,-1
 200 100 l 1,41,-1
 150 100 l 1,42,-1
 150 150 l 1,43,-1
 200 150 l 1,40,-1
150 150 m 1,44,-1
 100 150 l 1,45,-1
 100 200 l 1,46,-1
 150 200 l 1,47,-1
 150 150 l 1,44,-1
50 300 m 1,48,-1
 100 300 l 1,49,-1
 100 250 l 1,50,-1
 50 250 l 1,51,-1
 50 300 l 1,48,-1
100 250 m 1,52,-1
 150 250 l 1,53,-1
 150 200 l 1,54,-1
 100 200 l 1,55,-1
 100 250 l 1,52,-1
150 200 m 1,56,-1
 200 200 l 1,57,-1
 200 150 l 1,58,-1
 150 150 l 1,59,-1
 150 200 l 1,56,-1
200 150 m 1,60,-1
 250 150 l 1,61,-1
 250 100 l 1,62,-1
 200 100 l 1,63,-1
 200 150 l 1,60,-1
250 100 m 1,64,-1
 300 100 l 1,65,-1
 300 50 l 1,66,-1
 250 50 l 1,67,-1
 250 100 l 1,64,-1
EndSplineSet
EndChar

StartChar: A
Encoding: 65 65 33
Width: 0
Flags: W
AnchorPoint: "vowel" 0 200 mark 0
LayerCount: 2
Fore
SplineSet
-100 500 m 1,0,-1
 50 500 l 1,1,-1
 50 450 l 1,2,-1
 -100 450 l 1,3,-1
 -100 500 l 1,0,-1
50 450 m 1,4,-1
 100 450 l 1,5,-1
 100 400 l 1,6,-1
 50 400 l 1,7,-1
 50 450 l 1,4,-1
100 400 m 1,8,-1
 150 400 l 1,9,-1
 150 350 l 1,10,-1
 100 350 l 1,11,-1
 100 400 l 1,8,-1
-100 450 m 1,12,-1
 -100 400 l 1,13,-1
 -150 400 l 1,14,-1
 -150 450 l 1,15,-1
 -100 450 l 1,12,-1
-100 400 m 1,16,-1
 -50 400 l 1,17,-1
 -50 350 l 1,18,-1
 -100 350 l 1,19,-1
 -100 400 l 1,16,-1
-50 350 m 1,20,-1
 0 350 l 1,21,-1
 0 300 l 1,22,-1
 -50 300 l 1,23,-1
 -50 350 l 1,20,-1
-150 400 m 1,24,-1
 -150 350 l 1,25,-1
 -200 350 l 1,26,-1
 -200 400 l 1,27,-1
 -150 400 l 1,24,-1
EndSplineSet
EndChar

StartChar: B
Encoding: 66 66 34
Width: 400
Flags: W
AnchorPoint: "vowel" 200 200 basechar 0
LayerCount: 2
Fore
SplineSet
100 350 m 1,0,-1
 250 350 l 1,1,-1
 250 300 l 1,2,-1
 100 300 l 1,3,-1
 100 350 l 1,0,-1
250 300 m 1,4,-1
 300 300 l 1,5,-1
 300 250 l 1,6,-1
 250 250 l 1,7,-1
 250 300 l 1,4,-1
100 300 m 1,8,-1
 100 250 l 1,9,-1
 50 250 l 1,10,-1
 50 300 l 1,11,-1
 100 300 l 1,8,-1
50 250 m 1,12,-1
 50 100 l 1,13,-1
 0 100 l 1,14,-1
 0 250 l 1,15,-1
 50 250 l 1,12,-1
50 100 m 1,16,-1
 100 100 l 1,17,-1
 100 50 l 1,18,-1
 50 50 l 1,19,-1
 50 100 l 1,16,-1
100 50 m 1,20,-1
 250 50 l 1,21,-1
 250 0 l 1,22,-1
 100 0 l 1,23,-1
 100 50 l 1,20,-1
250 50 m 1,24,-1
 250 100 l 1,25,-1
 300 100 l 1,26,-1
 300 50 l 1,27,-1
 250 50 l 1,24,-1
50 300 m 1,28,-1
 100 300 l 1,29,-1
 100 250 l 1,30,-1
 50 250 l 1,31,-1
 50 300 l 1,28,-1
100 250 m 1,32,-1
 150 250 l 1,33,-1
 150 200 l 1,34,-1
 100 200 l 1,35,-1
 100 250 l 1,32,-1
150 200 m 1,36,-1
 200 200 l 1,37,-1
 200 150 l 1,38,-1
 150 150 l 1,39,-1
 150 200 l 1,36,-1
200 150 m 1,40,-1
 250 150 l 1,41,-1
 250 100 l 1,42,-1
 200 100 l 1,43,-1
 200 150 l 1,40,-1
250 100 m 1,44,-1
 300 100 l 1,45,-1
 300 50 l 1,46,-1
 250 50 l 1,47,-1
 250 100 l 1,44,-1
EndSplineSet
EndChar

StartChar: C
Encoding: 67 67 35
Width: 400
Flags: W
AnchorPoint: "vowel" 200 200 basechar 0
LayerCount: 2
Fore
SplineSet
100 350 m 1,0,-1
 250 350 l 1,1,-1
 250 300 l 1,2,-1
 100 300 l 1,3,-1
 100 350 l 1,0,-1
250 300 m 1,4,-1
 300 300 l 1,5,-1
 300 250 l 1,6,-1
 250 250 l 1,7,-1
 250 300 l 1,4,-1
300 250 m 1,8,-1
 350 250 l 1,9,-1
 350 100 l 1,10,-1
 300 100 l 1,11,-1
 300 250 l 1,8,-1
300 100 m 1,12,-1
 300 50 l 1,13,-1
 250 50 l 1,14,-1
 250 100 l 1,15,-1
 300 100 l 1,12,-1
250 50 m 1,16,-1
 250 0 l 1,17,-1
 100 0 l 1,18,-1
 100 50 l 1,19,-1
 250 50 l 1,16,-1
100 50 m 1,20,-1
 50 50 l 1,21,-1
 50 100 l 1,22,-1
 100 100 l 1,23,-1
 100 50 l 1,20,-1
100 300 m 1,24,-1
 100 250 l 1,25,-1
 50 250 l 1,26,-1
 50 300 l 1,27,-1
 100 300 l 1,24,-1
50 300 m 1,28,-1
 100 300 l 1,29,-1
 100 250 l 1,30,-1
 50 250 l 1,31,-1
 50 300 l 1,28,-1
100 250 m 1,32,-1
 150 250 l 1,33,-1
 150 200 l 1,34,-1
 100 200 l 1,35,-1
 100 250 l 1,32,-1
150 200 m 1,36,-1
 200 200 l 1,37,-1
 200 150 l 1,38,-1
 150 150 l 1,39,-1
 150 200 l 1,36,-1
200 150 m 1,40,-1
 250 150 l 1,41,-1
 250 100 l 1,42,-1
 200 100 l 1,43,-1
 200 150 l 1,40,-1
250 100 m 1,44,-1
 300 100 l 1,45,-1
 300 50 l 1,46,-1
 250 50 l 1,47,-1
 250 100 l 1,44,-1
EndSplineSet
EndChar

StartChar: D
Encoding: 68 68 36
Width: 400
Flags: W
AnchorPoint: "vowel" 200 200 basechar 0
LayerCount: 2
Fore
SplineSet
50 300 m 1,0,-1
 100 300 l 1,1,-1
 100 250 l 1,2,-1
 50 250 l 1,3,-1
 50 300 l 1,0,-1
50 250 m 1,4,-1
 50 100 l 1,5,-1
 0 100 l 1,6,-1
 0 250 l 1,7,-1
 50 250 l 1,4,-1
50 100 m 1,8,-1
 100 100 l 1,9,-1
 100 50 l 1,10,-1
 50 50 l 1,11,-1
 50 100 l 1,8,-1
100 50 m 1,12,-1
 250 50 l 1,13,-1
 250 0 l 1,14,-1
 100 0 l 1,15,-1
 100 50 l 1,12,-1
250 50 m 1,16,-1
 250 100 l 1,17,-1
 300 100 l 1,18,-1
 300 50 l 1,19,-1
 250 50 l 1,16,-1
300 100 m 1,20,-1
 300 250 l 1,21,-1
 350 250 l 1,22,-1
 350 100 l 1,23,-1
 300 100 l 1,20,-1
300 250 m 1,24,-1
 250 250 l 1,25,-1
 250 300 l 1,26,-1
 300 300 l 1,27,-1
 300 250 l 1,24,-1
50 300 m 1,28,-1
 100 300 l 1,29,-1
 100 250 l 1,30,-1
 50 250 l 1,31,-1
 50 300 l 1,28,-1
100 250 m 1,32,-1
 150 250 l 1,33,-1
 150 200 l 1,34,-1
 100 200 l 1,35,-1
 100 250 l 1,32,-1
150 200 m 1,36,-1
 200 200 l 1,37,-1
 200 150 l 1,38,-1
 150 150 l 1,39,-1
 150 200 l 1,36,-1
200 150 m 1,40,-1
 250 150 l 1,41,-1
 250 100 l 1,42,-1
 200 100 l 1,43,-1
 200 150 l 1,40,-1
250 100 m 1,44,-1
 300 100 l 1,45,-1
 300 50 l 1,46,-1
 250 50 l 1,47,-1
 250 100 l 1,44,-1
EndSplineSet
EndChar

StartChar: E
Encoding: 69 69 37
Width: 0
Flags: W
AnchorPoint: "vowel" 0 200 mark 0
LayerCount: 2
Fore
SplineSet
-150 450 m 1,0,-1
 -100 450 l 1,1,-1
 -100 400 l 1,2,-1
 -150 400 l 1,3,-1
 -150 450 l 1,0,-1
-100 400 m 1,4,-1
 -50 400 l 1,5,-1
 -50 350 l 1,6,-1
 -100 350 l 1,7,-1
 -100 400 l 1,4,-1
-50 350 m 1,8,-1
 0 350 l 1,9,-1
 0 300 l 1,10,-1
 -50 300 l 1,11,-1
 -50 350 l 1,8,-1
EndSplineSet
EndChar

StartChar: F
Encoding: 70 70 38
Width: 400
Flags: W
AnchorPoint: "vowel" 200 200 basechar 0
LayerCount: 2
Fore
SplineSet
100 350 m 1,0,-1
 250 350 l 1,1,-1
 250 300 l 1,2,-1
 100 300 l 1,3,-1
 100 350 l 1,0,-1
250 300 m 1,4,-1
 300 300 l 1,5,-1
 300 250 l 1,6,-1
 250 250 l 1,7,-1
 250 300 l 1,4,-1
300 250 m 1,8,-1
 350 250 l 1,9,-1
 350 100 l 1,10,-1
 300 100 l 1,11,-1
 300 250 l 1,8,-1
300 100 m 1,12,-1
 300 50 l 1,13,-1
 250 50 l 1,14,-1
 250 100 l 1,15,-1
 300 100 l 1,12,-1
100 300 m 1,16,-1
 100 250 l 1,17,-1
 50 250 l 1,18,-1
 50 300 l 1,19,-1
 100 300 l 1,16,-1
50 250 m 1,20,-1
 50 100 l 1,21,-1
 0 100 l 1,22,-1
 0 250 l 1,23,-1
 50 250 l 1,20,-1
50 100 m 1,24,-1
 100 100 l 1,25,-1
 100 50 l 1,26,-1
 50 50 l 1,27,-1
 50 100 l 1,24,-1
EndSplineSet
EndChar

StartChar: G
Encoding: 71 71 39
Width: 400
Flags: W
AnchorPoint: "vowel" 200 200 basechar 0
LayerCount: 2
Fore
SplineSet
150 350 m 1,0,-1
 250 350 l 1,1,-1
 250 300 l 1,2,-1
 150 300 l 1,3,-1
 150 350 l 1,0,-1
250 300 m 1,4,-1
 300 300 l 1,5,-1
 300 250 l 1,6,-1
 250 250 l 1,7,-1
 250 300 l 1,4,-1
300 250 m 1,8,-1
 350 250 l 1,9,-1
 350 100 l 1,10,-1
 300 100 l 1,11,-1
 300 250 l 1,8,-1
300 100 m 1,12,-1
 300 50 l 1,13,-1
 250 50 l 1,14,-1
 250 100 l 1,15,-1
 300 100 l 1,12,-1
250 50 m 1,16,-1
 250 0 l 1,17,-1
 100 0 l 1,18,-1
 100 50 l 1,19,-1
 250 50 l 1,16,-1
100 50 m 1,20,-1
 50 50 l 1,21,-1
 50 100 l 1,22,-1
 100 100 l 1,23,-1
 100 50 l 1,20,-1
50 100 m 1,24,-1
 0 100 l 1,25,-1
 0 200 l 1,26,-1
 50 200 l 1,27,-1
 50 100 l 1,24,-1
50 300 m 1,28,-1
 100 300 l 1,29,-1
 100 250 l 1,30,-1
 50 250 l 1,31,-1
 50 300 l 1,28,-1
100 250 m 1,32,-1
 150 250 l 1,33,-1
 150 200 l 1,34,-1
 100 200 l 1,35,-1
 100 250 l 1,32,-1
150 200 m 1,36,-1
 200 200 l 1,37,-1
 200 150 l 1,38,-1
 150 150 l 1,39,-1
 150 200 l 1,36,-1
200 150 m 1,40,-1
 250 150 l 1,41,-1
 250 100 l 1,42,-1
 200 100 l 1,43,-1
 200 150 l 1,40,-1
250 100 m 1,44,-1
 300 100 l 1,45,-1
 300 50 l 1,46,-1
 250 50 l 1,47,-1
 250 100 l 1,44,-1
EndSplineSet
EndChar

StartChar: H
Encoding: 72 72 40
Width: 400
Flags: W
AnchorPoint: "vowel" 200 200 basechar 0
LayerCount: 2
Fore
SplineSet
100 350 m 1,0,-1
 250 350 l 1,1,-1
 250 300 l 1,2,-1
 100 300 l 1,3,-1
 100 350 l 1,0,-1
250 300 m 1,4,-1
 300 300 l 1,5,-1
 300 250 l 1,6,-1
 250 250 l 1,7,-1
 250 300 l 1,4,-1
300 250 m 1,8,-1
 350 250 l 1,9,-1
 350 100 l 1,10,-1
 300 100 l 1,11,-1
 300 250 l 1,8,-1
300 100 m 1,12,-1
 300 50 l 1,13,-1
 250 50 l 1,14,-1
 250 100 l 1,15,-1
 300 100 l 1,12,-1
250 50 m 1,16,-1
 250 0 l 1,17,-1
 150 0 l 1,18,-1
 150 50 l 1,19,-1
 250 50 l 1,16,-1
100 300 m 1,20,-1
 100 250 l 1,21,-1
 50 250 l 1,22,-1
 50 300 l 1,23,-1
 100 300 l 1,20,-1
50 250 m 1,24,-1
 50 150 l 1,25,-1
 0 150 l 1,26,-1
 0 250 l 1,27,-1
 50 250 l 1,24,-1
EndSplineSet
EndChar

StartChar: I
Encoding: 73 73 41
Width: 0
Flags: W
AnchorPoint: "vowel" 0 200 mark 0
LayerCount: 2
Fore
SplineSet
-100 500 m 1,0,-1
 50 500 l 1,1,-1
 50 450 l 1,2,-1
 -100 450 l 1,3,-1
 -100 500 l 1,0,-1
50 450 m 1,4,-1
 100 450 l 1,5,-1
 100 400 l 1,6,-1
 50 400 l 1,7,-1
 50 450 l 1,4,-1
100 400 m 1,8,-1
 150 400 l 1,9,-1
 150 350 l 1,10,-1
 100 350 l 1,11,-1
 100 400 l 1,8,-1
-100 450 m 1,12,-1
 -100 400 l 1,13,-1
 -150 400 l 1,14,-1
 -150 450 l 1,15,-1
 -100 450 l 1,12,-1
-150 400 m 1,16,-1
 -150 350 l 1,17,-1
 -200 350 l 1,18,-1
 -200 400 l 1,19,-1
 -150 400 l 1,16,-1
EndSplineSet
EndChar

StartChar: J
Encoding: 74 74 42
Width: 400
Flags: W
AnchorPoint: "vowel" 200 200 basechar 0
LayerCount: 2
Fore
SplineSet
100 350 m 1,0,-1
 200 350 l 1,1,-1
 200 300 l 1,2,-1
 100 300 l 1,3,-1
 100 350 l 1,0,-1
100 300 m 1,4,-1
 100 250 l 1,5,-1
 50 250 l 1,6,-1
 50 300 l 1,7,-1
 100 300 l 1,4,-1
50 250 m 1,8,-1
 50 100 l 1,9,-1
 0 100 l 1,10,-1
 0 250 l 1,11,-1
 50 250 l 1,8,-1
50 100 m 1,12,-1
 100 100 l 1,13,-1
 100 50 l 1,14,-1
 50 50 l 1,15,-1
 50 100 l 1,12,-1
100 50 m 1,16,-1
 250 50 l 1,17,-1
 250 0 l 1,18,-1
 100 0 l 1,19,-1
 100 50 l 1,16,-1
250 50 m 1,20,-1
 250 100 l 1,21,-1
 300 100 l 1,22,-1
 300 50 l 1,23,-1
 250 50 l 1,20,-1
300 100 m 1,24,-1
 300 200 l 1,25,-1
 350 200 l 1,26,-1
 350 100 l 1,27,-1
 300 100 l 1,24,-1
50 300 m 1,28,-1
 100 300 l 1,29,-1
 100 250 l 1,30,-1
 50 250 l 1,31,-1
 50 300 l 1,28,-1
100 250 m 1,32,-1
 150 250 l 1,33,-1
 150 200 l 1,34,-1
 100 200 l 1,35,-1
 100 250 l 1,32,-1
150 200 m 1,36,-1
 200 200 l 1,37,-1
 200 150 l 1,38,-1
 150 150 l 1,39,-1
 150 200 l 1,36,-1
200 150 m 1,40,-1
 250 150 l 1,41,-1
 250 100 l 1,42,-1
 200 100 l 1,43,-1
 200 150 l 1,40,-1
250 100 m 1,44,-1
 300 100 l 1,45,-1
 300 50 l 1,46,-1
 250 50 l 1,47,-1
 250 100 l 1,44,-1
150 250 m 1,48,-1
 200 250 l 1,49,-1
 200 200 l 1,50,-1
 150 200 l 1,51,-1
 150 250 l 1,48,-1
200 200 m 1,52,-1
 250 200 l 1,53,-1
 250 150 l 1,54,-1
 200 150 l 1,55,-1
 200 200 l 1,52,-1
200 150 m 1,56,-1
 200 100 l 1,57,-1
 150 100 l 1,58,-1
 150 150 l 1,59,-1
 200 150 l 1,56,-1
150 150 m 1,60,-1
 100 150 l 1,61,-1
 100 200 l 1,62,-1
 150 200 l 1,63,-1
 150 150 l 1,60,-1
EndSplineSet
EndChar

StartChar: K
Encoding: 75 75 43
Width: 400
Flags: W
AnchorPoint: "vowel" 200 200 basechar 0
LayerCount: 2
Fore
SplineSet
150 350 m 1,0,-1
 250 350 l 1,1,-1
 250 300 l 1,2,-1
 150 300 l 1,3,-1
 150 350 l 1,0,-1
250 300 m 1,4,-1
 300 300 l 1,5,-1
 300 250 l 1,6,-1
 250 250 l 1,7,-1
 250 300 l 1,4,-1
300 250 m 1,8,-1
 350 250 l 1,9,-1
 350 100 l 1,10,-1
 300 100 l 1,11,-1
 300 250 l 1,8,-1
300 100 m 1,12,-1
 300 50 l 1,13,-1
 250 50 l 1,14,-1
 250 100 l 1,15,-1
 300 100 l 1,12,-1
250 50 m 1,16,-1
 250 0 l 1,17,-1
 100 0 l 1,18,-1
 100 50 l 1,19,-1
 250 50 l 1,16,-1
100 50 m 1,20,-1
 50 50 l 1,21,-1
 50 100 l 1,22,-1
 100 100 l 1,23,-1
 100 50 l 1,20,-1
50 100 m 1,24,-1
 0 100 l 1,25,-1
 0 200 l 1,26,-1
 50 200 l 1,27,-1
 50 100 l 1,24,-1
EndSplineSet
EndChar

StartChar: L
Encoding: 76 76 44
Width: 400
Flags: W
AnchorPoint: "vowel" 200 200 basechar 0
LayerCount: 2
Fore
SplineSet
100 350 m 1,0,-1
 250 350 l 1,1,-1
 250 300 l 1,2,-1
 100 300 l 1,3,-1
 100 350 l 1,0,-1
250 300 m 1,4,-1
 300 300 l 1,5,-1
 300 250 l 1,6,-1
 250 250 l 1,7,-1
 250 300 l 1,4,-1
300 250 m 1,8,-1
 350 250 l 1,9,-1
 350 100 l 1,10,-1
 300 100 l 1,11,-1
 300 250 l 1,8,-1
300 100 m 1,12,-1
 300 50 l 1,13,-1
 250 50 l 1,14,-1
 250 100 l 1,15,-1
 300 100 l 1,12,-1
250 50 m 1,16,-1
 250 0 l 1,17,-1
 100 0 l 1,18,-1
 100 50 l 1,19,-1
 250 50 l 1,16,-1
100 50 m 1,20,-1
 50 50 l 1,21,-1
 50 100 l 1,22,-1
 100 100 l 1,23,-1
 100 50 l 1,20,-1
50 100 m 1,24,-1
 0 100 l 1,25,-1
 0 250 l 1,26,-1
 50 250 l 1,27,-1
 50 100 l 1,24,-1
50 250 m 1,28,-1
 50 300 l 1,29,-1
 100 300 l 1,30,-1
 100 250 l 1,31,-1
 50 250 l 1,28,-1
50 300 m 1,32,-1
 100 300 l 1,33,-1
 100 250 l 1,34,-1
 50 250 l 1,35,-1
 50 300 l 1,32,-1
100 250 m 1,36,-1
 150 250 l 1,37,-1
 150 200 l 1,38,-1
 100 200 l 1,39,-1
 100 250 l 1,36,-1
150 200 m 1,40,-1
 200 200 l 1,41,-1
 200 150 l 1,42,-1
 150 150 l 1,43,-1
 150 200 l 1,40,-1
200 150 m 1,44,-1
 250 150 l 1,45,-1
 250 100 l 1,46,-1
 200 100 l 1,47,-1
 200 150 l 1,44,-1
250 100 m 1,48,-1
 300 100 l 1,49,-1
 300 50 l 1,50,-1
 250 50 l 1,51,-1
 250 100 l 1,48,-1
EndSplineSet
EndChar

StartChar: M
Encoding: 77 77 45
Width: 400
Flags: W
AnchorPoint: "vowel" 200 200 basechar 0
LayerCount: 2
Fore
SplineSet
100 350 m 1,0,-1
 250 350 l 1,1,-1
 250 300 l 1,2,-1
 100 300 l 1,3,-1
 100 350 l 1,0,-1
250 300 m 1,4,-1
 300 300 l 1,5,-1
 300 250 l 1,6,-1
 250 250 l 1,7,-1
 250 300 l 1,4,-1
300 250 m 1,8,-1
 350 250 l 1,9,-1
 350 150 l 1,10,-1
 300 150 l 1,11,-1
 300 250 l 1,8,-1
100 300 m 1,12,-1
 100 250 l 1,13,-1
 50 250 l 1,14,-1
 50 300 l 1,15,-1
 100 300 l 1,12,-1
50 250 m 1,16,-1
 50 100 l 1,17,-1
 0 100 l 1,18,-1
 0 250 l 1,19,-1
 50 250 l 1,16,-1
50 100 m 1,20,-1
 100 100 l 1,21,-1
 100 50 l 1,22,-1
 50 50 l 1,23,-1
 50 100 l 1,20,-1
100 50 m 1,24,-1
 200 50 l 1,25,-1
 200 0 l 1,26,-1
 100 0 l 1,27,-1
 100 50 l 1,24,-1
EndSplineSet
EndChar

StartChar: N
Encoding: 78 78 46
Width: 400
Flags: W
AnchorPoint: "vowel" 200 200 basechar 0
LayerCount: 2
Fore
SplineSet
100 350 m 1,0,-1
 250 350 l 1,1,-1
 250 300 l 1,2,-1
 100 300 l 1,3,-1
 100 350 l 1,0,-1
250 300 m 1,4,-1
 300 300 l 1,5,-1
 300 250 l 1,6,-1
 250 250 l 1,7,-1
 250 300 l 1,4,-1
300 250 m 1,8,-1
 350 250 l 1,9,-1
 350 150 l 1,10,-1
 300 150 l 1,11,-1
 300 250 l 1,8,-1
100 300 m 1,12,-1
 100 250 l 1,13,-1
 50 250 l 1,14,-1
 50 300 l 1,15,-1
 100 300 l 1,12,-1
50 250 m 1,16,-1
 50 100 l 1,17,-1
 0 100 l 1,18,-1
 0 250 l 1,19,-1
 50 250 l 1,16,-1
50 100 m 1,20,-1
 100 100 l 1,21,-1
 100 50 l 1,22,-1
 50 50 l 1,23,-1
 50 100 l 1,20,-1
100 50 m 1,24,-1
 200 50 l 1,25,-1
 200 0 l 1,26,-1
 100 0 l 1,27,-1
 100 50 l 1,24,-1
50 300 m 1,28,-1
 100 300 l 1,29,-1
 100 250 l 1,30,-1
 50 250 l 1,31,-1
 50 300 l 1,28,-1
100 250 m 1,32,-1
 150 250 l 1,33,-1
 150 200 l 1,34,-1
 100 200 l 1,35,-1
 100 250 l 1,32,-1
150 200 m 1,36,-1
 200 200 l 1,37,-1
 200 150 l 1,38,-1
 150 150 l 1,39,-1
 150 200 l 1,36,-1
200 150 m 1,40,-1
 250 150 l 1,41,-1
 250 100 l 1,42,-1
 200 100 l 1,43,-1
 200 150 l 1,40,-1
250 100 m 1,44,-1
 300 100 l 1,45,-1
 300 50 l 1,46,-1
 250 50 l 1,47,-1
 250 100 l 1,44,-1
EndSplineSet
EndChar

StartChar: O
Encoding: 79 79 47
Width: 0
Flags: W
AnchorPoint: "vowel" 0 200 mark 0
LayerCount: 2
Fore
SplineSet
-50 50 m 1,0,-1
 0 50 l 1,1,-1
 0 0 l 1,2,-1
 -50 0 l 1,3,-1
 -50 50 l 1,0,-1
0 0 m 1,4,-1
 50 0 l 1,5,-1
 50 -50 l 1,6,-1
 0 -50 l 1,7,-1
 0 0 l 1,4,-1
50 -50 m 1,8,-1
 100 -50 l 1,9,-1
 100 -100 l 1,10,-1
 50 -100 l 1,11,-1
 50 -50 l 1,8,-1
100 -50 m 1,12,-1
 100 0 l 1,13,-1
 150 0 l 1,14,-1
 150 -50 l 1,15,-1
 100 -50 l 1,12,-1
50 -100 m 1,16,-1
 50 -150 l 1,17,-1
 -100 -150 l 1,18,-1
 -100 -100 l 1,19,-1
 50 -100 l 1,16,-1
-100 -100 m 1,20,-1
 -150 -100 l 1,21,-1
 -150 -50 l 1,22,-1
 -100 -50 l 1,23,-1
 -100 -100 l 1,20,-1
-150 -50 m 1,24,-1
 -200 -50 l 1,25,-1
 -200 0 l 1,26,-1
 -150 0 l 1,27,-1
 -150 -50 l 1,24,-1
EndSplineSet
EndChar

StartChar: P
Encoding: 80 80 48
Width: 400
Flags: W
AnchorPoint: "vowel" 200 200 basechar 0
LayerCount: 2
Fore
SplineSet
100 350 m 1,0,-1
 250 350 l 1,1,-1
 250 300 l 1,2,-1
 100 300 l 1,3,-1
 100 350 l 1,0,-1
250 300 m 1,4,-1
 300 300 l 1,5,-1
 300 250 l 1,6,-1
 250 250 l 1,7,-1
 250 300 l 1,4,-1
100 300 m 1,8,-1
 100 250 l 1,9,-1
 50 250 l 1,10,-1
 50 300 l 1,11,-1
 100 300 l 1,8,-1
50 250 m 1,12,-1
 50 100 l 1,13,-1
 0 100 l 1,14,-1
 0 250 l 1,15,-1
 50 250 l 1,12,-1
50 100 m 1,16,-1
 100 100 l 1,17,-1
 100 50 l 1,18,-1
 50 50 l 1,19,-1
 50 100 l 1,16,-1
100 50 m 1,20,-1
 250 50 l 1,21,-1
 250 0 l 1,22,-1
 100 0 l 1,23,-1
 100 50 l 1,20,-1
250 50 m 1,24,-1
 250 100 l 1,25,-1
 300 100 l 1,26,-1
 300 50 l 1,27,-1
 250 50 l 1,24,-1
EndSplineSet
EndChar

StartChar: Q
Encoding: 81 81 49
Width: 400
Flags: W
AnchorPoint: "vowel" 200 200 basechar 0
LayerCount: 2
Fore
SplineSet
100 350 m 1,0,-1
 250 350 l 1,1,-1
 250 300 l 1,2,-1
 100 300 l 1,3,-1
 100 350 l 1,0,-1
250 300 m 1,4,-1
 300 300 l 1,5,-1
 300 250 l 1,6,-1
 250 250 l 1,7,-1
 250 300 l 1,4,-1
300 250 m 1,8,-1
 350 250 l 1,9,-1
 350 100 l 1,10,-1
 300 100 l 1,11,-1
 300 250 l 1,8,-1
300 100 m 1,12,-1
 300 50 l 1,13,-1
 250 50 l 1,14,-1
 250 100 l 1,15,-1
 300 100 l 1,12,-1
250 50 m 1,16,-1
 250 0 l 1,17,-1
 100 0 l 1,18,-1
 100 50 l 1,19,-1
 250 50 l 1,16,-1
100 50 m 1,20,-1
 50 50 l 1,21,-1
 50 100 l 1,22,-1
 100 100 l 1,23,-1
 100 50 l 1,20,-1
100 300 m 1,24,-1
 100 250 l 1,25,-1
 50 250 l 1,26,-1
 50 300 l 1,27,-1
 100 300 l 1,24,-1
EndSplineSet
EndChar

StartChar: R
Encoding: 82 82 50
Width: 400
Flags: W
AnchorPoint: "vowel" 200 200 basechar 0
LayerCount: 2
Fore
SplineSet
100 350 m 1,0,-1
 250 350 l 1,1,-1
 250 300 l 1,2,-1
 100 300 l 1,3,-1
 100 350 l 1,0,-1
250 300 m 1,4,-1
 300 300 l 1,5,-1
 300 250 l 1,6,-1
 250 250 l 1,7,-1
 250 300 l 1,4,-1
300 250 m 1,8,-1
 350 250 l 1,9,-1
 350 100 l 1,10,-1
 300 100 l 1,11,-1
 300 250 l 1,8,-1
300 100 m 1,12,-1
 300 50 l 1,13,-1
 250 50 l 1,14,-1
 250 100 l 1,15,-1
 300 100 l 1,12,-1
250 50 m 1,16,-1
 250 0 l 1,17,-1
 100 0 l 1,18,-1
 100 50 l 1,19,-1
 250 50 l 1,16,-1
100 50 m 1,20,-1
 50 50 l 1,21,-1
 50 100 l 1,22,-1
 100 100 l 1,23,-1
 100 50 l 1,20,-1
50 100 m 1,24,-1
 0 100 l 1,25,-1
 0 250 l 1,26,-1
 50 250 l 1,27,-1
 50 100 l 1,24,-1
50 250 m 1,28,-1
 50 300 l 1,29,-1
 100 300 l 1,30,-1
 100 250 l 1,31,-1
 50 250 l 1,28,-1
EndSplineSet
EndChar

StartChar: S
Encoding: 83 83 51
Width: 400
Flags: W
AnchorPoint: "vowel" 200 200 basechar 0
LayerCount: 2
Fore
SplineSet
100 350 m 1,0,-1
 200 350 l 1,1,-1
 200 300 l 1,2,-1
 100 300 l 1,3,-1
 100 350 l 1,0,-1
100 300 m 1,4,-1
 100 250 l 1,5,-1
 50 250 l 1,6,-1
 50 300 l 1,7,-1
 100 300 l 1,4,-1
50 250 m 1,8,-1
 50 100 l 1,9,-1
 0 100 l 1,10,-1
 0 250 l 1,11,-1
 50 250 l 1,8,-1
50 100 m 1,12,-1
 100 100 l 1,13,-1
 100 50 l 1,14,-1
 50 50 l 1,15,-1
 50 100 l 1,12,-1
100 50 m 1,16,-1
 250 50 l 1,17,-1
 250 0 l 1,18,-1
 100 0 l 1,19,-1
 100 50 l 1,16,-1
250 50 m 1,20,-1
 250 100 l 1,21,-1
 300 100 l 1,22,-1
 300 50 l 1,23,-1
 250 50 l 1,20,-1
300 100 m 1,24,-1
 300 200 l 1,25,-1
 350 200 l 1,26,-1
 350 100 l 1,27,-1
 300 100 l 1,24,-1
EndSplineSet
EndChar

StartChar: T
Encoding: 84 84 52
Width: 400
Flags: W
AnchorPoint: "vowel" 200 200 basechar 0
LayerCount: 2
Fore
SplineSet
50 300 m 1,0,-1
 100 300 l 1,1,-1
 100 250 l 1,2,-1
 50 250 l 1,3,-1
 50 300 l 1,0,-1
50 250 m 1,4,-1
 50 100 l 1,5,-1
 0 100 l 1,6,-1
 0 250 l 1,7,-1
 50 250 l 1,4,-1
50 100 m 1,8,-1
 100 100 l 1,9,-1
 100 50 l 1,10,-1
 50 50 l 1,11,-1
 50 100 l 1,8,-1
100 50 m 1,12,-1
 250 50 l 1,13,-1
 250 0 l 1,14,-1
 100 0 l 1,15,-1
 100 50 l 1,12,-1
250 50 m 1,16,-1
 250 100 l 1,17,-1
 300 100 l 1,18,-1
 300 50 l 1,19,-1
 250 50 l 1,16,-1
300 100 m 1,20,-1
 300 250 l 1,21,-1
 350 250 l 1,22,-1
 350 100 l 1,23,-1
 300 100 l 1,20,-1
300 250 m 1,24,-1
 250 250 l 1,25,-1
 250 300 l 1,26,-1
 300 300 l 1,27,-1
 300 250 l 1,24,-1
EndSplineSet
EndChar

StartChar: U
Encoding: 85 85 53
Width: 0
Flags: W
AnchorPoint: "vowel" 0 200 mark 0
LayerCount: 2
Fore
SplineSet
-50 50 m 1,0,-1
 0 50 l 1,1,-1
 0 0 l 1,2,-1
 -50 0 l 1,3,-1
 -50 50 l 1,0,-1
0 0 m 1,4,-1
 50 0 l 1,5,-1
 50 -50 l 1,6,-1
 0 -50 l 1,7,-1
 0 0 l 1,4,-1
50 -50 m 1,8,-1
 100 -50 l 1,9,-1
 100 -100 l 1,10,-1
 50 -100 l 1,11,-1
 50 -50 l 1,8,-1
EndSplineSet
EndChar

StartChar: V
Encoding: 86 86 54
Width: 400
Flags: W
AnchorPoint: "vowel" 200 200 basechar 0
LayerCount: 2
Fore
SplineSet
100 350 m 1,0,-1
 250 350 l 1,1,-1
 250 300 l 1,2,-1
 100 300 l 1,3,-1
 100 350 l 1,0,-1
250 300 m 1,4,-1
 300 300 l 1,5,-1
 300 250 l 1,6,-1
 250 250 l 1,7,-1
 250 300 l 1,4,-1
300 250 m 1,8,-1
 350 250 l 1,9,-1
 350 100 l 1,10,-1
 300 100 l 1,11,-1
 300 250 l 1,8,-1
300 100 m 1,12,-1
 300 50 l 1,13,-1
 250 50 l 1,14,-1
 250 100 l 1,15,-1
 300 100 l 1,12,-1
100 300 m 1,16,-1
 100 250 l 1,17,-1
 50 250 l 1,18,-1
 50 300 l 1,19,-1
 100 300 l 1,16,-1
50 250 m 1,20,-1
 50 100 l 1,21,-1
 0 100 l 1,22,-1
 0 250 l 1,23,-1
 50 250 l 1,20,-1
50 100 m 1,24,-1
 100 100 l 1,25,-1
 100 50 l 1,26,-1
 50 50 l 1,27,-1
 50 100 l 1,24,-1
50 300 m 1,28,-1
 100 300 l 1,29,-1
 100 250 l 1,30,-1
 50 250 l 1,31,-1
 50 300 l 1,28,-1
100 250 m 1,32,-1
 150 250 l 1,33,-1
 150 200 l 1,34,-1
 100 200 l 1,35,-1
 100 250 l 1,32,-1
150 200 m 1,36,-1
 200 200 l 1,37,-1
 200 150 l 1,38,-1
 150 150 l 1,39,-1
 150 200 l 1,36,-1
200 150 m 1,40,-1
 250 150 l 1,41,-1
 250 100 l 1,42,-1
 200 100 l 1,43,-1
 200 150 l 1,40,-1
250 100 m 1,44,-1
 300 100 l 1,45,-1
 300 50 l 1,46,-1
 250 50 l 1,47,-1
 250 100 l 1,44,-1
EndSplineSet
EndChar

StartChar: W
Encoding: 87 87 55
Width: 0
Flags: W
AnchorPoint: "vowel" 0 200 mark 0
LayerCount: 2
Fore
SplineSet
-200 0 m 1,0,-1
 -150 0 l 1,1,-1
 -150 -50 l 1,2,-1
 -200 -50 l 1,3,-1
 -200 0 l 1,0,-1
-150 -50 m 1,4,-1
 -100 -50 l 1,5,-1
 -100 -100 l 1,6,-1
 -150 -100 l 1,7,-1
 -150 -50 l 1,4,-1
-100 -100 m 1,8,-1
 50 -100 l 1,9,-1
 50 -150 l 1,10,-1
 -100 -150 l 1,11,-1
 -100 -100 l 1,8,-1
50 -100 m 1,12,-1
 50 -50 l 1,13,-1
 100 -50 l 1,14,-1
 100 -100 l 1,15,-1
 50 -100 l 1,12,-1
100 -50 m 1,16,-1
 100 0 l 1,17,-1
 150 0 l 1,18,-1
 150 -50 l 1,19,-1
 100 -50 l 1,16,-1
EndSplineSet
EndChar

StartChar: X
Encoding: 88 88 56
Width: 400
Flags: W
AnchorPoint: "vowel" 200 200 basechar 0
LayerCount: 2
Fore
SplineSet
100 350 m 1,0,-1
 250 350 l 1,1,-1
 250 300 l 1,2,-1
 100 300 l 1,3,-1
 100 350 l 1,0,-1
250 300 m 1,4,-1
 300 300 l 1,5,-1
 300 250 l 1,6,-1
 250 250 l 1,7,-1
 250 300 l 1,4,-1
300 250 m 1,8,-1
 350 250 l 1,9,-1
 350 100 l 1,10,-1
 300 100 l 1,11,-1
 300 250 l 1,8,-1
300 100 m 1,12,-1
 300 50 l 1,13,-1
 250 50 l 1,14,-1
 250 100 l 1,15,-1
 300 100 l 1,12,-1
250 50 m 1,16,-1
 250 0 l 1,17,-1
 150 0 l 1,18,-1
 150 50 l 1,19,-1
 250 50 l 1,16,-1
100 300 m 1,20,-1
 100 250 l 1,21,-1
 50 250 l 1,22,-1
 50 300 l 1,23,-1
 100 300 l 1,20,-1
50 250 m 1,24,-1
 50 150 l 1,25,-1
 0 150 l 1,26,-1
 0 250 l 1,27,-1
 50 250 l 1,24,-1
50 300 m 1,28,-1
 100 300 l 1,29,-1
 100 250 l 1,30,-1
 50 250 l 1,31,-1
 50 300 l 1,28,-1
100 250 m 1,32,-1
 150 250 l 1,33,-1
 150 200 l 1,34,-1
 100 200 l 1,35,-1
 100 250 l 1,32,-1
150 200 m 1,36,-1
 200 200 l 1,37,-1
 200 150 l 1,38,-1
 150 150 l 1,39,-1
 150 200 l 1,36,-1
200 150 m 1,40,-1
 250 150 l 1,41,-1
 250 100 l 1,42,-1
 200 100 l 1,43,-1
 200 150 l 1,40,-1
250 100 m 1,44,-1
 300 100 l 1,45,-1
 300 50 l 1,46,-1
 250 50 l 1,47,-1
 250 100 l 1,44,-1
EndSplineSet
EndChar

StartChar: Y
Encoding: 89 89 57
Width: 400
Flags: W
AnchorPoint: "vowel" 200 200 basechar 0
LayerCount: 2
Fore
SplineSet
100 350 m 1,0,-1
 250 350 l 1,1,-1
 250 300 l 1,2,-1
 100 300 l 1,3,-1
 100 350 l 1,0,-1
250 300 m 1,4,-1
 300 300 l 1,5,-1
 300 250 l 1,6,-1
 250 250 l 1,7,-1
 250 300 l 1,4,-1
300 250 m 1,8,-1
 350 250 l 1,9,-1
 350 100 l 1,10,-1
 300 100 l 1,11,-1
 300 250 l 1,8,-1
300 100 m 1,12,-1
 300 50 l 1,13,-1
 250 50 l 1,14,-1
 250 100 l 1,15,-1
 300 100 l 1,12,-1
250 50 m 1,16,-1
 250 0 l 1,17,-1
 100 0 l 1,18,-1
 100 50 l 1,19,-1
 250 50 l 1,16,-1
100 50 m 1,20,-1
 50 50 l 1,21,-1
 50 100 l 1,22,-1
 100 100 l 1,23,-1
 100 50 l 1,20,-1
100 300 m 1,24,-1
 100 250 l 1,25,-1
 50 250 l 1,26,-1
 50 300 l 1,27,-1
 100 300 l 1,24,-1
50 300 m 1,28,-1
 100 300 l 1,29,-1
 100 250 l 1,30,-1
 50 250 l 1,31,-1
 50 300 l 1,28,-1
100 250 m 1,32,-1
 150 250 l 1,33,-1
 150 200 l 1,34,-1
 100 200 l 1,35,-1
 100 250 l 1,32,-1
150 200 m 1,36,-1
 200 200 l 1,37,-1
 200 150 l 1,38,-1
 150 150 l 1,39,-1
 150 200 l 1,36,-1
200 150 m 1,40,-1
 250 150 l 1,41,-1
 250 100 l 1,42,-1
 200 100 l 1,43,-1
 200 150 l 1,40,-1
250 100 m 1,44,-1
 300 100 l 1,45,-1
 300 50 l 1,46,-1
 250 50 l 1,47,-1
 250 100 l 1,44,-1
150 250 m 1,48,-1
 200 250 l 1,49,-1
 200 200 l 1,50,-1
 150 200 l 1,51,-1
 150 250 l 1,48,-1
200 200 m 1,52,-1
 250 200 l 1,53,-1
 250 150 l 1,54,-1
 200 150 l 1,55,-1
 200 200 l 1,52,-1
200 150 m 1,56,-1
 200 100 l 1,57,-1
 150 100 l 1,58,-1
 150 150 l 1,59,-1
 200 150 l 1,56,-1
150 150 m 1,60,-1
 100 150 l 1,61,-1
 100 200 l 1,62,-1
 150 200 l 1,63,-1
 150 150 l 1,60,-1
EndSplineSet
EndChar

StartChar: Z
Encoding: 90 90 58
Width: 400
Flags: W
AnchorPoint: "vowel" 200 200 basechar 0
LayerCount: 2
Fore
SplineSet
100 350 m 1,0,-1
 200 350 l 1,1,-1
 200 300 l 1,2,-1
 100 300 l 1,3,-1
 100 350 l 1,0,-1
100 300 m 1,4,-1
 100 250 l 1,5,-1
 50 250 l 1,6,-1
 50 300 l 1,7,-1
 100 300 l 1,4,-1
50 250 m 1,8,-1
 50 100 l 1,9,-1
 0 100 l 1,10,-1
 0 250 l 1,11,-1
 50 250 l 1,8,-1
50 100 m 1,12,-1
 100 100 l 1,13,-1
 100 50 l 1,14,-1
 50 50 l 1,15,-1
 50 100 l 1,12,-1
100 50 m 1,16,-1
 250 50 l 1,17,-1
 250 0 l 1,18,-1
 100 0 l 1,19,-1
 100 50 l 1,16,-1
250 50 m 1,20,-1
 250 100 l 1,21,-1
 300 100 l 1,22,-1
 300 50 l 1,23,-1
 250 50 l 1,20,-1
300 100 m 1,24,-1
 300 200 l 1,25,-1
 350 200 l 1,26,-1
 350 100 l 1,27,-1
 300 100 l 1,24,-1
50 300 m 1,28,-1
 100 300 l 1,29,-1
 100 250 l 1,30,-1
 50 250 l 1,31,-1
 50 300 l 1,28,-1
100 250 m 1,32,-1
 150 250 l 1,33,-1
 150 200 l 1,34,-1
 100 200 l 1,35,-1
 100 250 l 1,32,-1
150 200 m 1,36,-1
 200 200 l 1,37,-1
 200 150 l 1,38,-1
 150 150 l 1,39,-1
 150 200 l 1,36,-1
200 150 m 1,40,-1
 250 150 l 1,41,-1
 250 100 l 1,42,-1
 200 100 l 1,43,-1
 200 150 l 1,40,-1
250 100 m 1,44,-1
 300 100 l 1,45,-1
 300 50 l 1,46,-1
 250 50 l 1,47,-1
 250 100 l 1,44,-1
EndSplineSet
EndChar

StartChar: bracketleft
Encoding: 91 91 59
Width: 400
Flags: W
LayerCount: 2
Fore
SplineSet
50 500 m 1,0,-1
 300 500 l 1,1,-1
 300 450 l 1,2,-1
 100 450 l 1,3,-1
 100 -100 l 1,4,-1
 300 -100 l 1,5,-1
 300 -150 l 1,6,-1
 50 -150 l 1,7,-1
 50 500 l 1,0,-1
EndSplineSet
EndChar

StartChar: backslash
Encoding: 92 92 60
Width: 400
Flags: W
LayerCount: 2
Fore
SplineSet
50 300 m 1,0,-1
 100 300 l 1,1,-1
 100 250 l 1,2,-1
 50 250 l 1,3,-1
 50 300 l 1,0,-1
100 250 m 1,4,-1
 150 250 l 1,5,-1
 150 200 l 1,6,-1
 100 200 l 1,7,-1
 100 250 l 1,4,-1
150 200 m 1,8,-1
 200 200 l 1,9,-1
 200 150 l 1,10,-1
 150 150 l 1,11,-1
 150 200 l 1,8,-1
200 150 m 1,12,-1
 250 150 l 1,13,-1
 250 100 l 1,14,-1
 200 100 l 1,15,-1
 200 150 l 1,12,-1
250 100 m 1,16,-1
 300 100 l 1,17,-1
 300 50 l 1,18,-1
 250 50 l 1,19,-1
 250 100 l 1,16,-1
EndSplineSet
EndChar

StartChar: bracketright
Encoding: 93 93 61
Width: 400
Flags: W
LayerCount: 2
Fore
SplineSet
50 500 m 1,0,-1
 300 500 l 1,1,-1
 300 -150 l 1,2,-1
 50 -150 l 1,3,-1
 50 -100 l 1,4,-1
 250 -100 l 1,5,-1
 250 450 l 1,6,-1
 50 450 l 1,7,-1
 50 500 l 1,0,-1
EndSplineSet
EndChar

StartChar: asciicircum
Encoding: 94 94 62
Width: 400
Flags: W
LayerCount: 2
Fore
SplineSet
150 350 m 1,0,-1
 200 350 l 1,1,-1
 200 300 l 1,2,-1
 150 300 l 1,3,-1
 150 350 l 1,0,-1
EndSplineSet
EndChar

StartChar: underscore
Encoding: 95 95 63
Width: 400
Flags: W
LayerCount: 2
Fore
SplineSet
150 50 m 1,0,-1
 200 50 l 1,1,-1
 200 0 l 1,2,-1
 150 0 l 1,3,-1
 150 50 l 1,0,-1
EndSplineSet
EndChar

StartChar: grave
Encoding: 96 96 64
Width: 400
Flags: W
LayerCount: 2
Fore
SplineSet
0 200 m 1,0,-1
 50 200 l 1,1,-1
 50 150 l 1,2,-1
 0 150 l 1,3,-1
 0 200 l 1,0,-1
150 200 m 1,4,-1
 200 200 l 1,5,-1
 200 150 l 1,6,-1
 150 150 l 1,7,-1
 150 200 l 1,4,-1
EndSplineSet
EndChar

StartChar: a
Encoding: 97 97 65
Width: 0
Flags: W
AnchorPoint: "vowel" 0 200 mark 0
LayerCount: 2
Fore
SplineSet
-100 500 m 1,0,-1
 50 500 l 1,1,-1
 50 450 l 1,2,-1
 -100 450 l 1,3,-1
 -100 500 l 1,0,-1
50 450 m 1,4,-1
 100 450 l 1,5,-1
 100 400 l 1,6,-1
 50 400 l 1,7,-1
 50 450 l 1,4,-1
100 400 m 1,8,-1
 150 400 l 1,9,-1
 150 350 l 1,10,-1
 100 350 l 1,11,-1
 100 400 l 1,8,-1
-100 450 m 1,12,-1
 -100 400 l 1,13,-1
 -150 400 l 1,14,-1
 -150 450 l 1,15,-1
 -100 450 l 1,12,-1
-100 400 m 1,16,-1
 -50 400 l 1,17,-1
 -50 350 l 1,18,-1
 -100 350 l 1,19,-1
 -100 400 l 1,16,-1
-50 350 m 1,20,-1
 0 350 l 1,21,-1
 0 300 l 1,22,-1
 -50 300 l 1,23,-1
 -50 350 l 1,20,-1
-150 400 m 1,24,-1
 -150 350 l 1,25,-1
 -200 350 l 1,26,-1
 -200 400 l 1,27,-1
 -150 400 l 1,24,-1
EndSplineSet
EndChar

StartChar: b
Encoding: 98 98 66
Width: 400
Flags: W
AnchorPoint: "vowel" 200 200 basechar 0
LayerCount: 2
Fore
SplineSet
100 350 m 1,0,-1
 250 350 l 1,1,-1
 250 300 l 1,2,-1
 100 300 l 1,3,-1
 100 350 l 1,0,-1
250 300 m 1,4,-1
 300 300 l 1,5,-1
 300 250 l 1,6,-1
 250 250 l 1,7,-1
 250 300 l 1,4,-1
100 300 m 1,8,-1
 100 250 l 1,9,-1
 50 250 l 1,10,-1
 50 300 l 1,11,-1
 100 300 l 1,8,-1
50 250 m 1,12,-1
 50 100 l 1,13,-1
 0 100 l 1,14,-1
 0 250 l 1,15,-1
 50 250 l 1,12,-1
50 100 m 1,16,-1
 100 100 l 1,17,-1
 100 50 l 1,18,-1
 50 50 l 1,19,-1
 50 100 l 1,16,-1
100 50 m 1,20,-1
 250 50 l 1,21,-1
 250 0 l 1,22,-1
 100 0 l 1,23,-1
 100 50 l 1,20,-1
250 50 m 1,24,-1
 250 100 l 1,25,-1
 300 100 l 1,26,-1
 300 50 l 1,27,-1
 250 50 l 1,24,-1
50 300 m 1,28,-1
 100 300 l 1,29,-1
 100 250 l 1,30,-1
 50 250 l 1,31,-1
 50 300 l 1,28,-1
100 250 m 1,32,-1
 150 250 l 1,33,-1
 150 200 l 1,34,-1
 100 200 l 1,35,-1
 100 250 l 1,32,-1
150 200 m 1,36,-1
 200 200 l 1,37,-1
 200 150 l 1,38,-1
 150 150 l 1,39,-1
 150 200 l 1,36,-1
200 150 m 1,40,-1
 250 150 l 1,41,-1
 250 100 l 1,42,-1
 200 100 l 1,43,-1
 200 150 l 1,40,-1
250 100 m 1,44,-1
 300 100 l 1,45,-1
 300 50 l 1,46,-1
 250 50 l 1,47,-1
 250 100 l 1,44,-1
EndSplineSet
EndChar

StartChar: c
Encoding: 99 99 67
Width: 400
Flags: W
AnchorPoint: "vowel" 200 200 basechar 0
LayerCount: 2
Fore
SplineSet
100 350 m 1,0,-1
 250 350 l 1,1,-1
 250 300 l 1,2,-1
 100 300 l 1,3,-1
 100 350 l 1,0,-1
250 300 m 1,4,-1
 300 300 l 1,5,-1
 300 250 l 1,6,-1
 250 250 l 1,7,-1
 250 300 l 1,4,-1
300 250 m 1,8,-1
 350 250 l 1,9,-1
 350 100 l 1,10,-1
 300 100 l 1,11,-1
 300 250 l 1,8,-1
300 100 m 1,12,-1
 300 50 l 1,13,-1
 250 50 l 1,14,-1
 250 100 l 1,15,-1
 300 100 l 1,12,-1
250 50 m 1,16,-1
 250 0 l 1,17,-1
 100 0 l 1,18,-1
 100 50 l 1,19,-1
 250 50 l 1,16,-1
100 50 m 1,20,-1
 50 50 l 1,21,-1
 50 100 l 1,22,-1
 100 100 l 1,23,-1
 100 50 l 1,20,-1
100 300 m 1,24,-1
 100 250 l 1,25,-1
 50 250 l 1,26,-1
 50 300 l 1,27,-1
 100 300 l 1,24,-1
50 300 m 1,28,-1
 100 300 l 1,29,-1
 100 250 l 1,30,-1
 50 250 l 1,31,-1
 50 300 l 1,28,-1
100 250 m 1,32,-1
 150 250 l 1,33,-1
 150 200 l 1,34,-1
 100 200 l 1,35,-1
 100 250 l 1,32,-1
150 200 m 1,36,-1
 200 200 l 1,37,-1
 200 150 l 1,38,-1
 150 150 l 1,39,-1
 150 200 l 1,36,-1
200 150 m 1,40,-1
 250 150 l 1,41,-1
 250 100 l 1,42,-1
 200 100 l 1,43,-1
 200 150 l 1,40,-1
250 100 m 1,44,-1
 300 100 l 1,45,-1
 300 50 l 1,46,-1
 250 50 l 1,47,-1
 250 100 l 1,44,-1
EndSplineSet
EndChar

StartChar: d
Encoding: 100 100 68
Width: 400
Flags: W
AnchorPoint: "vowel" 200 200 basechar 0
LayerCount: 2
Fore
SplineSet
50 300 m 1,0,-1
 100 300 l 1,1,-1
 100 250 l 1,2,-1
 50 250 l 1,3,-1
 50 300 l 1,0,-1
50 250 m 1,4,-1
 50 100 l 1,5,-1
 0 100 l 1,6,-1
 0 250 l 1,7,-1
 50 250 l 1,4,-1
50 100 m 1,8,-1
 100 100 l 1,9,-1
 100 50 l 1,10,-1
 50 50 l 1,11,-1
 50 100 l 1,8,-1
100 50 m 1,12,-1
 250 50 l 1,13,-1
 250 0 l 1,14,-1
 100 0 l 1,15,-1
 100 50 l 1,12,-1
250 50 m 1,16,-1
 250 100 l 1,17,-1
 300 100 l 1,18,-1
 300 50 l 1,19,-1
 250 50 l 1,16,-1
300 100 m 1,20,-1
 300 250 l 1,21,-1
 350 250 l 1,22,-1
 350 100 l 1,23,-1
 300 100 l 1,20,-1
300 250 m 1,24,-1
 250 250 l 1,25,-1
 250 300 l 1,26,-1
 300 300 l 1,27,-1
 300 250 l 1,24,-1
50 300 m 1,28,-1
 100 300 l 1,29,-1
 100 250 l 1,30,-1
 50 250 l 1,31,-1
 50 300 l 1,28,-1
100 250 m 1,32,-1
 150 250 l 1,33,-1
 150 200 l 1,34,-1
 100 200 l 1,35,-1
 100 250 l 1,32,-1
150 200 m 1,36,-1
 200 200 l 1,37,-1
 200 150 l 1,38,-1
 150 150 l 1,39,-1
 150 200 l 1,36,-1
200 150 m 1,40,-1
 250 150 l 1,41,-1
 250 100 l 1,42,-1
 200 100 l 1,43,-1
 200 150 l 1,40,-1
250 100 m 1,44,-1
 300 100 l 1,45,-1
 300 50 l 1,46,-1
 250 50 l 1,47,-1
 250 100 l 1,44,-1
EndSplineSet
EndChar

StartChar: e
Encoding: 101 101 69
Width: 0
Flags: W
AnchorPoint: "vowel" 0 200 mark 0
LayerCount: 2
Fore
SplineSet
-150 450 m 1,0,-1
 -100 450 l 1,1,-1
 -100 400 l 1,2,-1
 -150 400 l 1,3,-1
 -150 450 l 1,0,-1
-100 400 m 1,4,-1
 -50 400 l 1,5,-1
 -50 350 l 1,6,-1
 -100 350 l 1,7,-1
 -100 400 l 1,4,-1
-50 350 m 1,8,-1
 0 350 l 1,9,-1
 0 300 l 1,10,-1
 -50 300 l 1,11,-1
 -50 350 l 1,8,-1
EndSplineSet
EndChar

StartChar: f
Encoding: 102 102 70
Width: 400
Flags: W
AnchorPoint: "vowel" 200 200 basechar 0
LayerCount: 2
Fore
SplineSet
100 350 m 1,0,-1
 250 350 l 1,1,-1
 250 300 l 1,2,-1
 100 300 l 1,3,-1
 100 350 l 1,0,-1
250 300 m 1,4,-1
 300 300 l 1,5,-1
 300 250 l 1,6,-1
 250 250 l 1,7,-1
 250 300 l 1,4,-1
300 250 m 1,8,-1
 350 250 l 1,9,-1
 350 100 l 1,10,-1
 300 100 l 1,11,-1
 300 250 l 1,8,-1
300 100 m 1,12,-1
 300 50 l 1,13,-1
 250 50 l 1,14,-1
 250 100 l 1,15,-1
 300 100 l 1,12,-1
100 300 m 1,16,-1
 100 250 l 1,17,-1
 50 250 l 1,18,-1
 50 300 l 1,19,-1
 100 300 l 1,16,-1
50 250 m 1,20,-1
 50 100 l 1,21,-1
 0 100 l 1,22,-1
 0 250 l 1,23,-1
 50 250 l 1,20,-1
50 100 m 1,24,-1
 100 100 l 1,25,-1
 100 50 l 1,26,-1
 50 50 l 1,27,-1
 50 100 l 1,24,-1
EndSplineSet
EndChar

StartChar: g
Encoding: 103 103 71
Width: 400
Flags: W
AnchorPoint: "vowel" 200 200 basechar 0
LayerCount: 2
Fore
SplineSet
150 350 m 1,0,-1
 250 350 l 1,1,-1
 250 300 l 1,2,-1
 150 300 l 1,3,-1
 150 350 l 1,0,-1
250 300 m 1,4,-1
 300 300 l 1,5,-1
 300 250 l 1,6,-1
 250 250 l 1,7,-1
 250 300 l 1,4,-1
300 250 m 1,8,-1
 350 250 l 1,9,-1
 350 100 l 1,10,-1
 300 100 l 1,11,-1
 300 250 l 1,8,-1
300 100 m 1,12,-1
 300 50 l 1,13,-1
 250 50 l 1,14,-1
 250 100 l 1,15,-1
 300 100 l 1,12,-1
250 50 m 1,16,-1
 250 0 l 1,17,-1
 100 0 l 1,18,-1
 100 50 l 1,19,-1
 250 50 l 1,16,-1
100 50 m 1,20,-1
 50 50 l 1,21,-1
 50 100 l 1,22,-1
 100 100 l 1,23,-1
 100 50 l 1,20,-1
50 100 m 1,24,-1
 0 100 l 1,25,-1
 0 200 l 1,26,-1
 50 200 l 1,27,-1
 50 100 l 1,24,-1
50 300 m 1,28,-1
 100 300 l 1,29,-1
 100 250 l 1,30,-1
 50 250 l 1,31,-1
 50 300 l 1,28,-1
100 250 m 1,32,-1
 150 250 l 1,33,-1
 150 200 l 1,34,-1
 100 200 l 1,35,-1
 100 250 l 1,32,-1
150 200 m 1,36,-1
 200 200 l 1,37,-1
 200 150 l 1,38,-1
 150 150 l 1,39,-1
 150 200 l 1,36,-1
200 150 m 1,40,-1
 250 150 l 1,41,-1
 250 100 l 1,42,-1
 200 100 l 1,43,-1
 200 150 l 1,40,-1
250 100 m 1,44,-1
 300 100 l 1,45,-1
 300 50 l 1,46,-1
 250 50 l 1,47,-1
 250 100 l 1,44,-1
EndSplineSet
EndChar

StartChar: h
Encoding: 104 104 72
Width: 400
Flags: W
AnchorPoint: "vowel" 200 200 basechar 0
LayerCount: 2
Fore
SplineSet
100 350 m 1,0,-1
 250 350 l 1,1,-1
 250 300 l 1,2,-1
 100 300 l 1,3,-1
 100 350 l 1,0,-1
250 300 m 1,4,-1
 300 300 l 1,5,-1
 300 250 l 1,6,-1
 250 250 l 1,7,-1
 250 300 l 1,4,-1
300 250 m 1,8,-1
 350 250 l 1,9,-1
 350 100 l 1,10,-1
 300 100 l 1,11,-1
 300 250 l 1,8,-1
300 100 m 1,12,-1
 300 50 l 1,13,-1
 250 50 l 1,14,-1
 250 100 l 1,15,-1
 300 100 l 1,12,-1
250 50 m 1,16,-1
 250 0 l 1,17,-1
 150 0 l 1,18,-1
 150 50 l 1,19,-1
 250 50 l 1,16,-1
100 300 m 1,20,-1
 100 250 l 1,21,-1
 50 250 l 1,22,-1
 50 300 l 1,23,-1
 100 300 l 1,20,-1
50 250 m 1,24,-1
 50 150 l 1,25,-1
 0 150 l 1,26,-1
 0 250 l 1,27,-1
 50 250 l 1,24,-1
EndSplineSet
EndChar

StartChar: i
Encoding: 105 105 73
Width: 0
Flags: W
AnchorPoint: "vowel" 0 200 mark 0
LayerCount: 2
Fore
SplineSet
-100 500 m 1,0,-1
 50 500 l 1,1,-1
 50 450 l 1,2,-1
 -100 450 l 1,3,-1
 -100 500 l 1,0,-1
50 450 m 1,4,-1
 100 450 l 1,5,-1
 100 400 l 1,6,-1
 50 400 l 1,7,-1
 50 450 l 1,4,-1
100 400 m 1,8,-1
 150 400 l 1,9,-1
 150 350 l 1,10,-1
 100 350 l 1,11,-1
 100 400 l 1,8,-1
-100 450 m 1,12,-1
 -100 400 l 1,13,-1
 -150 400 l 1,14,-1
 -150 450 l 1,15,-1
 -100 450 l 1,12,-1
-150 400 m 1,16,-1
 -150 350 l 1,17,-1
 -200 350 l 1,18,-1
 -200 400 l 1,19,-1
 -150 400 l 1,16,-1
EndSplineSet
EndChar

StartChar: j
Encoding: 106 106 74
Width: 400
Flags: W
AnchorPoint: "vowel" 200 200 basechar 0
LayerCount: 2
Fore
SplineSet
100 350 m 1,0,-1
 200 350 l 1,1,-1
 200 300 l 1,2,-1
 100 300 l 1,3,-1
 100 350 l 1,0,-1
100 300 m 1,4,-1
 100 250 l 1,5,-1
 50 250 l 1,6,-1
 50 300 l 1,7,-1
 100 300 l 1,4,-1
50 250 m 1,8,-1
 50 100 l 1,9,-1
 0 100 l 1,10,-1
 0 250 l 1,11,-1
 50 250 l 1,8,-1
50 100 m 1,12,-1
 100 100 l 1,13,-1
 100 50 l 1,14,-1
 50 50 l 1,15,-1
 50 100 l 1,12,-1
100 50 m 1,16,-1
 250 50 l 1,17,-1
 250 0 l 1,18,-1
 100 0 l 1,19,-1
 100 50 l 1,16,-1
250 50 m 1,20,-1
 250 100 l 1,21,-1
 300 100 l 1,22,-1
 300 50 l 1,23,-1
 250 50 l 1,20,-1
300 100 m 1,24,-1
 300 200 l 1,25,-1
 350 200 l 1,26,-1
 350 100 l 1,27,-1
 300 100 l 1,24,-1
50 300 m 1,28,-1
 100 300 l 1,29,-1
 100 250 l 1,30,-1
 50 250 l 1,31,-1
 50 300 l 1,28,-1
100 250 m 1,32,-1
 150 250 l 1,33,-1
 150 200 l 1,34,-1
 100 200 l 1,35,-1
 100 250 l 1,32,-1
150 200 m 1,36,-1
 200 200 l 1,37,-1
 200 150 l 1,38,-1
 150 150 l 1,39,-1
 150 200 l 1,36,-1
200 150 m 1,40,-1
 250 150 l 1,41,-1
 250 100 l 1,42,-1
 200 100 l 1,43,-1
 200 150 l 1,40,-1
250 100 m 1,44,-1
 300 100 l 1,45,-1
 300 50 l 1,46,-1
 250 50 l 1,47,-1
 250 100 l 1,44,-1
150 250 m 1,48,-1
 200 250 l 1,49,-1
 200 200 l 1,50,-1
 150 200 l 1,51,-1
 150 250 l 1,48,-1
200 200 m 1,52,-1
 250 200 l 1,53,-1
 250 150 l 1,54,-1
 200 150 l 1,55,-1
 200 200 l 1,52,-1
200 150 m 1,56,-1
 200 100 l 1,57,-1
 150 100 l 1,58,-1
 150 150 l 1,59,-1
 200 150 l 1,56,-1
150 150 m 1,60,-1
 100 150 l 1,61,-1
 100 200 l 1,62,-1
 150 200 l 1,63,-1
 150 150 l 1,60,-1
EndSplineSet
EndChar

StartChar: k
Encoding: 107 107 75
Width: 400
Flags: W
AnchorPoint: "vowel" 200 200 basechar 0
LayerCount: 2
Fore
SplineSet
150 350 m 1,0,-1
 250 350 l 1,1,-1
 250 300 l 1,2,-1
 150 300 l 1,3,-1
 150 350 l 1,0,-1
250 300 m 1,4,-1
 300 300 l 1,5,-1
 300 250 l 1,6,-1
 250 250 l 1,7,-1
 250 300 l 1,4,-1
300 250 m 1,8,-1
 350 250 l 1,9,-1
 350 100 l 1,10,-1
 300 100 l 1,11,-1
 300 250 l 1,8,-1
300 100 m 1,12,-1
 300 50 l 1,13,-1
 250 50 l 1,14,-1
 250 100 l 1,15,-1
 300 100 l 1,12,-1
250 50 m 1,16,-1
 250 0 l 1,17,-1
 100 0 l 1,18,-1
 100 50 l 1,19,-1
 250 50 l 1,16,-1
100 50 m 1,20,-1
 50 50 l 1,21,-1
 50 100 l 1,22,-1
 100 100 l 1,23,-1
 100 50 l 1,20,-1
50 100 m 1,24,-1
 0 100 l 1,25,-1
 0 200 l 1,26,-1
 50 200 l 1,27,-1
 50 100 l 1,24,-1
EndSplineSet
EndChar

StartChar: l
Encoding: 108 108 76
Width: 400
Flags: W
AnchorPoint: "vowel" 200 200 basechar 0
LayerCount: 2
Fore
SplineSet
100 350 m 1,0,-1
 250 350 l 1,1,-1
 250 300 l 1,2,-1
 100 300 l 1,3,-1
 100 350 l 1,0,-1
250 300 m 1,4,-1
 300 300 l 1,5,-1
 300 250 l 1,6,-1
 250 250 l 1,7,-1
 250 300 l 1,4,-1
300 250 m 1,8,-1
 350 250 l 1,9,-1
 350 100 l 1,10,-1
 300 100 l 1,11,-1
 300 250 l 1,8,-1
300 100 m 1,12,-1
 300 50 l 1,13,-1
 250 50 l 1,14,-1
 250 100 l 1,15,-1
 300 100 l 1,12,-1
250 50 m 1,16,-1
 250 0 l 1,17,-1
 100 0 l 1,18,-1
 100 50 l 1,19,-1
 250 50 l 1,16,-1
100 50 m 1,20,-1
 50 50 l 1,21,-1
 50 100 l 1,22,-1
 100 100 l 1,23,-1
 100 50 l 1,20,-1
50 100 m 1,24,-1
 0 100 l 1,25,-1
 0 250 l 1,26,-1
 50 250 l 1,27,-1
 50 100 l 1,24,-1
50 250 m 1,28,-1
 50 300 l 1,29,-1
 100 300 l 1,30,-1
 100 250 l 1,31,-1
 50 250 l 1,28,-1
50 300 m 1,32,-1
 100 300 l 1,33,-1
 100 250 l 1,34,-1
 50 250 l 1,35,-1
 50 300 l 1,32,-1
100 250 m 1,36,-1
 150 250 l 1,37,-1
 150 200 l 1,38,-1
 100 200 l 1,39,-1
 100 250 l 1,36,-1
150 200 m 1,40,-1
 200 200 l 1,41,-1
 200 150 l 1,42,-1
 150 150 l 1,43,-1
 150 200 l 1,40,-1
200 150 m 1,44,-1
 250 150 l 1,45,-1
 250 100 l 1,46,-1
 200 100 l 1,47,-1
 200 150 l 1,44,-1
250 100 m 1,48,-1
 300 100 l 1,49,-1
 300 50 l 1,50,-1
 250 50 l 1,51,-1
 250 100 l 1,48,-1
EndSplineSet
EndChar

StartChar: m
Encoding: 109 109 77
Width: 400
Flags: W
AnchorPoint: "vowel" 200 200 basechar 0
LayerCount: 2
Fore
SplineSet
100 350 m 1,0,-1
 250 350 l 1,1,-1
 250 300 l 1,2,-1
 100 300 l 1,3,-1
 100 350 l 1,0,-1
250 300 m 1,4,-1
 300 300 l 1,5,-1
 300 250 l 1,6,-1
 250 250 l 1,7,-1
 250 300 l 1,4,-1
300 250 m 1,8,-1
 350 250 l 1,9,-1
 350 150 l 1,10,-1
 300 150 l 1,11,-1
 300 250 l 1,8,-1
100 300 m 1,12,-1
 100 250 l 1,13,-1
 50 250 l 1,14,-1
 50 300 l 1,15,-1
 100 300 l 1,12,-1
50 250 m 1,16,-1
 50 100 l 1,17,-1
 0 100 l 1,18,-1
 0 250 l 1,19,-1
 50 250 l 1,16,-1
50 100 m 1,20,-1
 100 100 l 1,21,-1
 100 50 l 1,22,-1
 50 50 l 1,23,-1
 50 100 l 1,20,-1
100 50 m 1,24,-1
 200 50 l 1,25,-1
 200 0 l 1,26,-1
 100 0 l 1,27,-1
 100 50 l 1,24,-1
EndSplineSet
EndChar

StartChar: n
Encoding: 110 110 78
Width: 400
Flags: W
AnchorPoint: "vowel" 200 200 basechar 0
LayerCount: 2
Fore
SplineSet
100 350 m 1,0,-1
 250 350 l 1,1,-1
 250 300 l 1,2,-1
 100 300 l 1,3,-1
 100 350 l 1,0,-1
250 300 m 1,4,-1
 300 300 l 1,5,-1
 300 250 l 1,6,-1
 250 250 l 1,7,-1
 250 300 l 1,4,-1
300 250 m 1,8,-1
 350 250 l 1,9,-1
 350 150 l 1,10,-1
 300 150 l 1,11,-1
 300 250 l 1,8,-1
100 300 m 1,12,-1
 100 250 l 1,13,-1
 50 250 l 1,14,-1
 50 300 l 1,15,-1
 100 300 l 1,12,-1
50 250 m 1,16,-1
 50 100 l 1,17,-1
 0 100 l 1,18,-1
 0 250 l 1,19,-1
 50 250 l 1,16,-1
50 100 m 1,20,-1
 100 100 l 1,21,-1
 100 50 l 1,22,-1
 50 50 l 1,23,-1
 50 100 l 1,20,-1
100 50 m 1,24,-1
 200 50 l 1,25,-1
 200 0 l 1,26,-1
 100 0 l 1,27,-1
 100 50 l 1,24,-1
50 300 m 1,28,-1
 100 300 l 1,29,-1
 100 250 l 1,30,-1
 50 250 l 1,31,-1
 50 300 l 1,28,-1
100 250 m 1,32,-1
 150 250 l 1,33,-1
 150 200 l 1,34,-1
 100 200 l 1,35,-1
 100 250 l 1,32,-1
150 200 m 1,36,-1
 200 200 l 1,37,-1
 200 150 l 1,38,-1
 150 150 l 1,39,-1
 150 200 l 1,36,-1
200 150 m 1,40,-1
 250 150 l 1,41,-1
 250 100 l 1,42,-1
 200 100 l 1,43,-1
 200 150 l 1,40,-1
250 100 m 1,44,-1
 300 100 l 1,45,-1
 300 50 l 1,46,-1
 250 50 l 1,47,-1
 250 100 l 1,44,-1
EndSplineSet
EndChar

StartChar: o
Encoding: 111 111 79
Width: 0
Flags: W
AnchorPoint: "vowel" 0 200 mark 0
LayerCount: 2
Fore
SplineSet
-50 50 m 1,0,-1
 0 50 l 1,1,-1
 0 0 l 1,2,-1
 -50 0 l 1,3,-1
 -50 50 l 1,0,-1
0 0 m 1,4,-1
 50 0 l 1,5,-1
 50 -50 l 1,6,-1
 0 -50 l 1,7,-1
 0 0 l 1,4,-1
50 -50 m 1,8,-1
 100 -50 l 1,9,-1
 100 -100 l 1,10,-1
 50 -100 l 1,11,-1
 50 -50 l 1,8,-1
100 -50 m 1,12,-1
 100 0 l 1,13,-1
 150 0 l 1,14,-1
 150 -50 l 1,15,-1
 100 -50 l 1,12,-1
50 -100 m 1,16,-1
 50 -150 l 1,17,-1
 -100 -150 l 1,18,-1
 -100 -100 l 1,19,-1
 50 -100 l 1,16,-1
-100 -100 m 1,20,-1
 -150 -100 l 1,21,-1
 -150 -50 l 1,22,-1
 -100 -50 l 1,23,-1
 -100 -100 l 1,20,-1
-150 -50 m 1,24,-1
 -200 -50 l 1,25,-1
 -200 0 l 1,26,-1
 -150 0 l 1,27,-1
 -150 -50 l 1,24,-1
EndSplineSet
EndChar

StartChar: p
Encoding: 112 112 80
Width: 400
Flags: W
AnchorPoint: "vowel" 200 200 basechar 0
LayerCount: 2
Fore
SplineSet
100 350 m 1,0,-1
 250 350 l 1,1,-1
 250 300 l 1,2,-1
 100 300 l 1,3,-1
 100 350 l 1,0,-1
250 300 m 1,4,-1
 300 300 l 1,5,-1
 300 250 l 1,6,-1
 250 250 l 1,7,-1
 250 300 l 1,4,-1
100 300 m 1,8,-1
 100 250 l 1,9,-1
 50 250 l 1,10,-1
 50 300 l 1,11,-1
 100 300 l 1,8,-1
50 250 m 1,12,-1
 50 100 l 1,13,-1
 0 100 l 1,14,-1
 0 250 l 1,15,-1
 50 250 l 1,12,-1
50 100 m 1,16,-1
 100 100 l 1,17,-1
 100 50 l 1,18,-1
 50 50 l 1,19,-1
 50 100 l 1,16,-1
100 50 m 1,20,-1
 250 50 l 1,21,-1
 250 0 l 1,22,-1
 100 0 l 1,23,-1
 100 50 l 1,20,-1
250 50 m 1,24,-1
 250 100 l 1,25,-1
 300 100 l 1,26,-1
 300 50 l 1,27,-1
 250 50 l 1,24,-1
EndSplineSet
EndChar

StartChar: q
Encoding: 113 113 81
Width: 400
Flags: W
AnchorPoint: "vowel" 200 200 basechar 0
LayerCount: 2
Fore
SplineSet
100 350 m 1,0,-1
 250 350 l 1,1,-1
 250 300 l 1,2,-1
 100 300 l 1,3,-1
 100 350 l 1,0,-1
250 300 m 1,4,-1
 300 300 l 1,5,-1
 300 250 l 1,6,-1
 250 250 l 1,7,-1
 250 300 l 1,4,-1
300 250 m 1,8,-1
 350 250 l 1,9,-1
 350 100 l 1,10,-1
 300 100 l 1,11,-1
 300 250 l 1,8,-1
300 100 m 1,12,-1
 300 50 l 1,13,-1
 250 50 l 1,14,-1
 250 100 l 1,15,-1
 300 100 l 1,12,-1
250 50 m 1,16,-1
 250 0 l 1,17,-1
 100 0 l 1,18,-1
 100 50 l 1,19,-1
 250 50 l 1,16,-1
100 50 m 1,20,-1
 50 50 l 1,21,-1
 50 100 l 1,22,-1
 100 100 l 1,23,-1
 100 50 l 1,20,-1
100 300 m 1,24,-1
 100 250 l 1,25,-1
 50 250 l 1,26,-1
 50 300 l 1,27,-1
 100 300 l 1,24,-1
EndSplineSet
EndChar

StartChar: r
Encoding: 114 114 82
Width: 400
Flags: W
AnchorPoint: "vowel" 200 200 basechar 0
LayerCount: 2
Fore
SplineSet
100 350 m 1,0,-1
 250 350 l 1,1,-1
 250 300 l 1,2,-1
 100 300 l 1,3,-1
 100 350 l 1,0,-1
250 300 m 1,4,-1
 300 300 l 1,5,-1
 300 250 l 1,6,-1
 250 250 l 1,7,-1
 250 300 l 1,4,-1
300 250 m 1,8,-1
 350 250 l 1,9,-1
 350 100 l 1,10,-1
 300 100 l 1,11,-1
 300 250 l 1,8,-1
300 100 m 1,12,-1
 300 50 l 1,13,-1
 250 50 l 1,14,-1
 250 100 l 1,15,-1
 300 100 l 1,12,-1
250 50 m 1,16,-1
 250 0 l 1,17,-1
 100 0 l 1,18,-1
 100 50 l 1,19,-1
 250 50 l 1,16,-1
100 50 m 1,20,-1
 50 50 l 1,21,-1
 50 100 l 1,22,-1
 100 100 l 1,23,-1
 100 50 l 1,20,-1
50 100 m 1,24,-1
 0 100 l 1,25,-1
 0 250 l 1,26,-1
 50 250 l 1,27,-1
 50 100 l 1,24,-1
50 250 m 1,28,-1
 50 300 l 1,29,-1
 100 300 l 1,30,-1
 100 250 l 1,31,-1
 50 250 l 1,28,-1
EndSplineSet
EndChar

StartChar: s
Encoding: 115 115 83
Width: 400
Flags: W
AnchorPoint: "vowel" 200 200 basechar 0
LayerCount: 2
Fore
SplineSet
100 350 m 1,0,-1
 200 350 l 1,1,-1
 200 300 l 1,2,-1
 100 300 l 1,3,-1
 100 350 l 1,0,-1
100 300 m 1,4,-1
 100 250 l 1,5,-1
 50 250 l 1,6,-1
 50 300 l 1,7,-1
 100 300 l 1,4,-1
50 250 m 1,8,-1
 50 100 l 1,9,-1
 0 100 l 1,10,-1
 0 250 l 1,11,-1
 50 250 l 1,8,-1
50 100 m 1,12,-1
 100 100 l 1,13,-1
 100 50 l 1,14,-1
 50 50 l 1,15,-1
 50 100 l 1,12,-1
100 50 m 1,16,-1
 250 50 l 1,17,-1
 250 0 l 1,18,-1
 100 0 l 1,19,-1
 100 50 l 1,16,-1
250 50 m 1,20,-1
 250 100 l 1,21,-1
 300 100 l 1,22,-1
 300 50 l 1,23,-1
 250 50 l 1,20,-1
300 100 m 1,24,-1
 300 200 l 1,25,-1
 350 200 l 1,26,-1
 350 100 l 1,27,-1
 300 100 l 1,24,-1
EndSplineSet
EndChar

StartChar: t
Encoding: 116 116 84
Width: 400
Flags: W
AnchorPoint: "vowel" 200 200 basechar 0
LayerCount: 2
Fore
SplineSet
50 300 m 1,0,-1
 100 300 l 1,1,-1
 100 250 l 1,2,-1
 50 250 l 1,3,-1
 50 300 l 1,0,-1
50 250 m 1,4,-1
 50 100 l 1,5,-1
 0 100 l 1,6,-1
 0 250 l 1,7,-1
 50 250 l 1,4,-1
50 100 m 1,8,-1
 100 100 l 1,9,-1
 100 50 l 1,10,-1
 50 50 l 1,11,-1
 50 100 l 1,8,-1
100 50 m 1,12,-1
 250 50 l 1,13,-1
 250 0 l 1,14,-1
 100 0 l 1,15,-1
 100 50 l 1,12,-1
250 50 m 1,16,-1
 250 100 l 1,17,-1
 300 100 l 1,18,-1
 300 50 l 1,19,-1
 250 50 l 1,16,-1
300 100 m 1,20,-1
 300 250 l 1,21,-1
 350 250 l 1,22,-1
 350 100 l 1,23,-1
 300 100 l 1,20,-1
300 250 m 1,24,-1
 250 250 l 1,25,-1
 250 300 l 1,26,-1
 300 300 l 1,27,-1
 300 250 l 1,24,-1
EndSplineSet
EndChar

StartChar: u
Encoding: 117 117 85
Width: 0
Flags: W
AnchorPoint: "vowel" 0 200 mark 0
LayerCount: 2
Fore
SplineSet
-50 50 m 1,0,-1
 0 50 l 1,1,-1
 0 0 l 1,2,-1
 -50 0 l 1,3,-1
 -50 50 l 1,0,-1
0 0 m 1,4,-1
 50 0 l 1,5,-1
 50 -50 l 1,6,-1
 0 -50 l 1,7,-1
 0 0 l 1,4,-1
50 -50 m 1,8,-1
 100 -50 l 1,9,-1
 100 -100 l 1,10,-1
 50 -100 l 1,11,-1
 50 -50 l 1,8,-1
EndSplineSet
EndChar

StartChar: v
Encoding: 118 118 86
Width: 400
Flags: W
AnchorPoint: "vowel" 200 200 basechar 0
LayerCount: 2
Fore
SplineSet
100 350 m 1,0,-1
 250 350 l 1,1,-1
 250 300 l 1,2,-1
 100 300 l 1,3,-1
 100 350 l 1,0,-1
250 300 m 1,4,-1
 300 300 l 1,5,-1
 300 250 l 1,6,-1
 250 250 l 1,7,-1
 250 300 l 1,4,-1
300 250 m 1,8,-1
 350 250 l 1,9,-1
 350 100 l 1,10,-1
 300 100 l 1,11,-1
 300 250 l 1,8,-1
300 100 m 1,12,-1
 300 50 l 1,13,-1
 250 50 l 1,14,-1
 250 100 l 1,15,-1
 300 100 l 1,12,-1
100 300 m 1,16,-1
 100 250 l 1,17,-1
 50 250 l 1,18,-1
 50 300 l 1,19,-1
 100 300 l 1,16,-1
50 250 m 1,20,-1
 50 100 l 1,21,-1
 0 100 l 1,22,-1
 0 250 l 1,23,-1
 50 250 l 1,20,-1
50 100 m 1,24,-1
 100 100 l 1,25,-1
 100 50 l 1,26,-1
 50 50 l 1,27,-1
 50 100 l 1,24,-1
50 300 m 1,28,-1
 100 300 l 1,29,-1
 100 250 l 1,30,-1
 50 250 l 1,31,-1
 50 300 l 1,28,-1
100 250 m 1,32,-1
 150 250 l 1,33,-1
 150 200 l 1,34,-1
 100 200 l 1,35,-1
 100 250 l 1,32,-1
150 200 m 1,36,-1
 200 200 l 1,37,-1
 200 150 l 1,38,-1
 150 150 l 1,39,-1
 150 200 l 1,36,-1
200 150 m 1,40,-1
 250 150 l 1,41,-1
 250 100 l 1,42,-1
 200 100 l 1,43,-1
 200 150 l 1,40,-1
250 100 m 1,44,-1
 300 100 l 1,45,-1
 300 50 l 1,46,-1
 250 50 l 1,47,-1
 250 100 l 1,44,-1
EndSplineSet
EndChar

StartChar: w
Encoding: 119 119 87
Width: 0
Flags: W
AnchorPoint: "vowel" 0 200 mark 0
LayerCount: 2
Fore
SplineSet
-200 0 m 1,0,-1
 -150 0 l 1,1,-1
 -150 -50 l 1,2,-1
 -200 -50 l 1,3,-1
 -200 0 l 1,0,-1
-150 -50 m 1,4,-1
 -100 -50 l 1,5,-1
 -100 -100 l 1,6,-1
 -150 -100 l 1,7,-1
 -150 -50 l 1,4,-1
-100 -100 m 1,8,-1
 50 -100 l 1,9,-1
 50 -150 l 1,10,-1
 -100 -150 l 1,11,-1
 -100 -100 l 1,8,-1
50 -100 m 1,12,-1
 50 -50 l 1,13,-1
 100 -50 l 1,14,-1
 100 -100 l 1,15,-1
 50 -100 l 1,12,-1
100 -50 m 1,16,-1
 100 0 l 1,17,-1
 150 0 l 1,18,-1
 150 -50 l 1,19,-1
 100 -50 l 1,16,-1
EndSplineSet
EndChar

StartChar: x
Encoding: 120 120 88
Width: 400
Flags: W
AnchorPoint: "vowel" 200 200 basechar 0
LayerCount: 2
Fore
SplineSet
100 350 m 1,0,-1
 250 350 l 1,1,-1
 250 300 l 1,2,-1
 100 300 l 1,3,-1
 100 350 l 1,0,-1
250 300 m 1,4,-1
 300 300 l 1,5,-1
 300 250 l 1,6,-1
 250 250 l 1,7,-1
 250 300 l 1,4,-1
300 250 m 1,8,-1
 350 250 l 1,9,-1
 350 100 l 1,10,-1
 300 100 l 1,11,-1
 300 250 l 1,8,-1
300 100 m 1,12,-1
 300 50 l 1,13,-1
 250 50 l 1,14,-1
 250 100 l 1,15,-1
 300 100 l 1,12,-1
250 50 m 1,16,-1
 250 0 l 1,17,-1
 150 0 l 1,18,-1
 150 50 l 1,19,-1
 250 50 l 1,16,-1
100 300 m 1,20,-1
 100 250 l 1,21,-1
 50 250 l 1,22,-1
 50 300 l 1,23,-1
 100 300 l 1,20,-1
50 250 m 1,24,-1
 50 150 l 1,25,-1
 0 150 l 1,26,-1
 0 250 l 1,27,-1
 50 250 l 1,24,-1
50 300 m 1,28,-1
 100 300 l 1,29,-1
 100 250 l 1,30,-1
 50 250 l 1,31,-1
 50 300 l 1,28,-1
100 250 m 1,32,-1
 150 250 l 1,33,-1
 150 200 l 1,34,-1
 100 200 l 1,35,-1
 100 250 l 1,32,-1
150 200 m 1,36,-1
 200 200 l 1,37,-1
 200 150 l 1,38,-1
 150 150 l 1,39,-1
 150 200 l 1,36,-1
200 150 m 1,40,-1
 250 150 l 1,41,-1
 250 100 l 1,42,-1
 200 100 l 1,43,-1
 200 150 l 1,40,-1
250 100 m 1,44,-1
 300 100 l 1,45,-1
 300 50 l 1,46,-1
 250 50 l 1,47,-1
 250 100 l 1,44,-1
EndSplineSet
EndChar

StartChar: y
Encoding: 121 121 89
Width: 400
Flags: W
AnchorPoint: "vowel" 200 200 basechar 0
LayerCount: 2
Fore
SplineSet
100 350 m 1,0,-1
 250 350 l 1,1,-1
 250 300 l 1,2,-1
 100 300 l 1,3,-1
 100 350 l 1,0,-1
250 300 m 1,4,-1
 300 300 l 1,5,-1
 300 250 l 1,6,-1
 250 250 l 1,7,-1
 250 300 l 1,4,-1
300 250 m 1,8,-1
 350 250 l 1,9,-1
 350 100 l 1,10,-1
 300 100 l 1,11,-1
 300 250 l 1,8,-1
300 100 m 1,12,-1
 300 50 l 1,13,-1
 250 50 l 1,14,-1
 250 100 l 1,15,-1
 300 100 l 1,12,-1
250 50 m 1,16,-1
 250 0 l 1,17,-1
 100 0 l 1,18,-1
 100 50 l 1,19,-1
 250 50 l 1,16,-1
100 50 m 1,20,-1
 50 50 l 1,21,-1
 50 100 l 1,22,-1
 100 100 l 1,23,-1
 100 50 l 1,20,-1
100 300 m 1,24,-1
 100 250 l 1,25,-1
 50 250 l 1,26,-1
 50 300 l 1,27,-1
 100 300 l 1,24,-1
50 300 m 1,28,-1
 100 300 l 1,29,-1
 100 250 l 1,30,-1
 50 250 l 1,31,-1
 50 300 l 1,28,-1
100 250 m 1,32,-1
 150 250 l 1,33,-1
 150 200 l 1,34,-1
 100 200 l 1,35,-1
 100 250 l 1,32,-1
150 200 m 1,36,-1
 200 200 l 1,37,-1
 200 150 l 1,38,-1
 150 150 l 1,39,-1
 150 200 l 1,36,-1
200 150 m 1,40,-1
 250 150 l 1,41,-1
 250 100 l 1,42,-1
 200 100 l 1,43,-1
 200 150 l 1,40,-1
250 100 m 1,44,-1
 300 100 l 1,45,-1
 300 50 l 1,46,-1
 250 50 l 1,47,-1
 250 100 l 1,44,-1
150 250 m 1,48,-1
 200 250 l 1,49,-1
 200 200 l 1,50,-1
 150 200 l 1,51,-1
 150 250 l 1,48,-1
200 200 m 1,52,-1
 250 200 l 1,53,-1
 250 150 l 1,54,-1
 200 150 l 1,55,-1
 200 200 l 1,52,-1
200 150 m 1,56,-1
 200 100 l 1,57,-1
 150 100 l 1,58,-1
 150 150 l 1,59,-1
 200 150 l 1,56,-1
150 150 m 1,60,-1
 100 150 l 1,61,-1
 100 200 l 1,62,-1
 150 200 l 1,63,-1
 150 150 l 1,60,-1
EndSplineSet
EndChar

StartChar: z
Encoding: 122 122 90
Width: 400
Flags: W
AnchorPoint: "vowel" 200 200 basechar 0
LayerCount: 2
Fore
SplineSet
100 350 m 1,0,-1
 200 350 l 1,1,-1
 200 300 l 1,2,-1
 100 300 l 1,3,-1
 100 350 l 1,0,-1
100 300 m 1,4,-1
 100 250 l 1,5,-1
 50 250 l 1,6,-1
 50 300 l 1,7,-1
 100 300 l 1,4,-1
50 250 m 1,8,-1
 50 100 l 1,9,-1
 0 100 l 1,10,-1
 0 250 l 1,11,-1
 50 250 l 1,8,-1
50 100 m 1,12,-1
 100 100 l 1,13,-1
 100 50 l 1,14,-1
 50 50 l 1,15,-1
 50 100 l 1,12,-1
100 50 m 1,16,-1
 250 50 l 1,17,-1
 250 0 l 1,18,-1
 100 0 l 1,19,-1
 100 50 l 1,16,-1
250 50 m 1,20,-1
 250 100 l 1,21,-1
 300 100 l 1,22,-1
 300 50 l 1,23,-1
 250 50 l 1,20,-1
300 100 m 1,24,-1
 300 200 l 1,25,-1
 350 200 l 1,26,-1
 350 100 l 1,27,-1
 300 100 l 1,24,-1
50 300 m 1,28,-1
 100 300 l 1,29,-1
 100 250 l 1,30,-1
 50 250 l 1,31,-1
 50 300 l 1,28,-1
100 250 m 1,32,-1
 150 250 l 1,33,-1
 150 200 l 1,34,-1
 100 200 l 1,35,-1
 100 250 l 1,32,-1
150 200 m 1,36,-1
 200 200 l 1,37,-1
 200 150 l 1,38,-1
 150 150 l 1,39,-1
 150 200 l 1,36,-1
200 150 m 1,40,-1
 250 150 l 1,41,-1
 250 100 l 1,42,-1
 200 100 l 1,43,-1
 200 150 l 1,40,-1
250 100 m 1,44,-1
 300 100 l 1,45,-1
 300 50 l 1,46,-1
 250 50 l 1,47,-1
 250 100 l 1,44,-1
EndSplineSet
EndChar

StartChar: braceleft
Encoding: 123 123 91
Width: 400
Flags: W
LayerCount: 2
Fore
SplineSet
200 500 m 1,0,-1
 300 500 l 1,1,-1
 300 450 l 1,2,-1
 200 450 l 1,3,-1
 200 500 l 1,0,-1
200 450 m 1,4,-1
 200 200 l 1,5,-1
 150 200 l 1,6,-1
 150 450 l 1,7,-1
 200 450 l 1,4,-1
150 200 m 1,8,-1
 150 150 l 1,9,-1
 50 150 l 1,10,-1
 50 200 l 1,11,-1
 150 200 l 1,8,-1
150 150 m 1,12,-1
 200 150 l 1,13,-1
 200 -100 l 1,14,-1
 150 -100 l 1,15,-1
 150 150 l 1,12,-1
200 -100 m 1,16,-1
 300 -100 l 1,17,-1
 300 -150 l 1,18,-1
 200 -150 l 1,19,-1
 200 -100 l 1,16,-1
EndSplineSet
EndChar

StartChar: bar
Encoding: 124 124 92
Width: 400
Flags: W
LayerCount: 2
Fore
SplineSet
150 500 m 1,0,-1
 200 500 l 1,1,-1
 200 -150 l 1,2,-1
 150 -150 l 1,3,-1
 150 500 l 1,0,-1
EndSplineSet
EndChar

StartChar: braceright
Encoding: 125 125 93
Width: 400
Flags: W
LayerCount: 2
Fore
SplineSet
50 500 m 1,0,-1
 150 500 l 1,1,-1
 150 450 l 1,2,-1
 50 450 l 1,3,-1
 50 500 l 1,0,-1
150 450 m 1,4,-1
 200 450 l 1,5,-1
 200 200 l 1,6,-1
 150 200 l 1,7,-1
 150 450 l 1,4,-1
200 200 m 1,8,-1
 300 200 l 1,9,-1
 300 150 l 1,10,-1
 200 150 l 1,11,-1
 200 200 l 1,8,-1
200 150 m 1,12,-1
 200 -100 l 1,13,-1
 150 -100 l 1,14,-1
 150 150 l 1,15,-1
 200 150 l 1,12,-1
150 -100 m 1,16,-1
 150 -150 l 1,17,-1
 50 -150 l 1,18,-1
 50 -100 l 1,19,-1
 150 -100 l 1,16,-1
EndSplineSet
EndChar

StartChar: asciitilde
Encoding: 126 126 94
Width: 400
Flags: W
LayerCount: 2
Fore
SplineSet
100 250 m 1,0,-1
 150 250 l 1,1,-1
 150 200 l 1,2,-1
 100 200 l 1,3,-1
 100 250 l 1,0,-1
150 200 m 1,4,-1
 200 200 l 1,5,-1
 200 150 l 1,6,-1
 150 150 l 1,7,-1
 150 200 l 1,4,-1
200 150 m 1,8,-1
 250 150 l 1,9,-1
 250 100 l 1,10,-1
 200 100 l 1,11,-1
 200 150 l 1,8,-1
250 150 m 1,12,-1
 250 200 l 1,13,-1
 300 200 l 1,14,-1
 300 150 l 1,15,-1
 250 150 l 1,12,-1
100 200 m 1,16,-1
 100 150 l 1,17,-1
 50 150 l 1,18,-1
 50 200 l 1,19,-1
 100 200 l 1,16,-1
EndSplineSet
EndChar

StartChar: uni25CC
Encoding: 9676 9676 95
Width: 400
Flags: W
AnchorPoint: "vowel" 200 200 basechar 0
LayerCount: 2
Fore
SplineSet
100 350 m 1,0,-1
 250 350 l 1,1,-1
 250 300 l 1,2,-1
 100 300 l 1,3,-1
 100 350 l 1,0,-1
250 300 m 1,4,-1
 300 300 l 1,5,-1
 300 250 l 1,6,-1
 250 250 l 1,7,-1
 250 300 l 1,4,-1
100 300 m 1,8,-1
 100 250 l 1,9,-1
 50 250 l 1,10,-1
 50 300 l 1,11,-1
 100 300 l 1,8,-1
100 250 m 1,12,-1
 150 250 l 1,13,-1
 200 250 l 1,14,-1
 200 200 l 1,15,-1
 250 200 l 1,16,-1
 250 150 l 1,17,-1
 250 100 l 1,18,-1
 200 100 l 1,19,-1
 150 100 l 1,20,-1
 150 150 l 1,21,-1
 100 150 l 1,22,-1
 100 200 l 1,23,-1
 100 250 l 1,12,-1
250 100 m 1,24,-1
 300 100 l 1,25,-1
 300 50 l 1,26,-1
 250 50 l 1,27,-1
 250 100 l 1,24,-1
250 50 m 1,28,-1
 250 0 l 1,29,-1
 100 0 l 1,30,-1
 100 50 l 1,31,-1
 250 50 l 1,28,-1
100 50 m 1,32,-1
 50 50 l 1,33,-1
 50 100 l 1,34,-1
 100 100 l 1,35,-1
 100 50 l 1,32,-1
EndSplineSet
EndChar
